<svg width="57" height="58" fill="none" xmlns="http://www.w3.org/2000/svg"><path d="M46.599 25.786a.594.594 0 0 0-.17-.424l-4.795-4.795a.597.597 0 0 0-.424-.176h-5.994v-1.199h2.997a.6.6 0 0 0 .6-.599v-9.59a.6.6 0 0 0-.6-.6H17.834a.6.6 0 0 0-.6.6v9.59c0 .33.269.6.6.6h2.997v1.198h-5.994a.597.597 0 0 0-.423.176l-4.796 4.795a.594.594 0 0 0-.17.424h-.005v2.996c0 1.062.465 2.014 1.199 2.674v13.51c0 .33.268.6.599.6h33.565a.6.6 0 0 0 .6-.6v-13.51a3.584 3.584 0 0 0 1.198-2.674v-2.996H46.6ZM34.017 20.39H32.82v-1.199h1.198v1.2Zm-2.397-1.199v1.2h-7.193v-1.2h7.193Zm-13.187-9.59h19.18v8.392h-19.18V9.602Zm3.597 9.59h1.199v1.2h-1.2v-1.2Zm-6.945 2.398h25.877l3.596 3.596H11.49l3.596-3.596Zm-4.443 7.192v-2.397h4.795v2.397a2.4 2.4 0 0 1-2.398 2.398 2.4 2.4 0 0 1-2.397-2.398Zm5.993-2.397h4.795v2.397a2.4 2.4 0 0 1-2.397 2.398 2.4 2.4 0 0 1-2.398-2.398v-2.397Zm5.994 0h4.795v2.397a2.4 2.4 0 0 1-2.397 2.398 2.4 2.4 0 0 1-2.398-2.398v-2.397Zm5.994 0h4.795v2.397a2.4 2.4 0 0 1-2.398 2.398 2.4 2.4 0 0 1-2.397-2.398v-2.397Zm5.994 0h4.795v2.397a2.4 2.4 0 0 1-2.398 2.398 2.4 2.4 0 0 1-2.397-2.398v-2.397ZM23.828 44.366h-3.596v-8.391h3.596v8.391Zm-4.795 0h-3.596v-8.391h3.596v8.391Zm21.578 0h-3.597v-8.391h3.597v8.391Zm-4.795 0h-3.597v-8.391h3.596v8.391Zm8.39 0H41.81v-8.99a.6.6 0 0 0-.6-.6h-9.59a.6.6 0 0 0-.599.6v8.99h-5.993v-8.99a.6.6 0 0 0-.6-.6h-9.59a.6.6 0 0 0-.6.6v8.99H11.84V32.17c.376.133.778.21 1.2.21 1.25 0 2.351-.642 2.996-1.613a3.594 3.594 0 0 0 2.997 1.613c1.25 0 2.352-.642 2.997-1.613a3.594 3.594 0 0 0 2.997 1.613c1.25 0 2.352-.642 2.997-1.613a3.594 3.594 0 0 0 2.996 1.613c1.25 0 2.353-.642 2.997-1.613a3.594 3.594 0 0 0 2.997 1.613c1.25 0 2.352-.642 2.997-1.613a3.594 3.594 0 0 0 2.997 1.613c.42 0 .823-.077 1.199-.21v12.197ZM43.009 31.18a2.4 2.4 0 0 1-2.397-2.398v-2.397h4.795v2.397a2.4 2.4 0 0 1-2.398 2.398Z" fill="#fff"/><path d="M19.632 12.6v2.397a1.8 1.8 0 0 0 1.798 1.798h1.799v-1.199H21.43a.6.6 0 0 1-.599-.6V12.6a.6.6 0 0 1 .6-.6h1.798v-1.198H21.43a1.8 1.8 0 0 0-1.798 1.798ZM29.222 12v4.795h1.199v-2.398h1.798V13.2h-1.798v-1.2h1.798v-1.198h-1.798A1.2 1.2 0 0 0 29.222 12ZM33.418 12v3.596a1.2 1.2 0 0 0 1.199 1.199h1.798v-1.199h-1.798v-1.199h1.798V13.2h-1.798v-1.2h1.798v-1.198h-1.798a1.2 1.2 0 0 0-1.2 1.199ZM26.225 10.801a1.8 1.8 0 0 0-1.798 1.798v4.196h1.199v-1.199h1.198v1.199h1.2v-4.196a1.8 1.8 0 0 0-1.799-1.798Zm-.6 3.596V12.6a.6.6 0 0 1 1.2 0v1.798h-1.2Z" fill="#fff"/><circle cx="28.176" cy="28.964" r="27.676" stroke="#fff"/></svg>