<svg width="57" height="57" fill="none" xmlns="http://www.w3.org/2000/svg"><path d="m46.484 42.39-2.274-3.44V21.756l1.788-2.68a.726.726 0 0 0-.2-1.006l-3.113-2.078V10.25c0-.401-.324-.726-.725-.726h-3.218c-.401 0-.726.325-.726.726v2.627l-9.59-6.4a.726.726 0 0 0-.805 0l-5.437 3.629a.726.726 0 0 0 .806 1.207l5.034-3.36 16.364 10.923-1.128 1.69-14.833-9.9a.726.726 0 0 0-.806 0l-14.833 9.9-1.128-1.69 5.897-3.936a.726.726 0 0 0-.806-1.207l-6.5 4.339a.726.726 0 0 0-.201 1.006l1.788 2.68v20.307h-1.67a.726.726 0 0 0 0 1.451H45.88a.726.726 0 0 0 .605-1.126Zm-7.016-31.416h1.766v4.05l-1.766-1.178v-2.872Zm-3.853 14.978.83-1.256a.726.726 0 1 0-1.21-.8l-.49.74-.49-.74a.726.726 0 1 0-1.211.8l.83 1.256-.407.616c-5.813 5.006-14.584 4.819-20.177-.56v-3.504c.691.178 1.39.325 2.093.442a2.18 2.18 0 0 0 1.899 3.242 2.18 2.18 0 0 0 2.051-2.906l.13.001c.674 0 1.349-.027 2.021-.082a2.18 2.18 0 0 0 2.125 2.649 2.18 2.18 0 0 0 1.864-3.303 24.857 24.857 0 0 0 2.19-.652 2.18 2.18 0 0 0 2.178 2.162 2.18 2.18 0 0 0 2.177-2.177c0-.632-.27-1.201-.7-1.6a24.79 24.79 0 0 0 1.67-.99 2.181 2.181 0 0 0 2.113 1.647 2.18 2.18 0 0 0 2.124-2.654l5.533 3.693v14.778l-7.143-10.802Zm3.316 14.424-2.836-4.288h2.836v4.288Zm-3.46-5.74v-6.27l4.146 6.27H35.47ZM25 32.372a.727.727 0 1 1-1.453-.002.727.727 0 0 1 1.453.002Zm-6.238-.938a.727.727 0 1 1-1.454-.002.727.727 0 0 1 1.454.002Zm-.754-7.423a.727.727 0 1 1-1.454-.002.727.727 0 0 1 1.454.002Zm6.328-.338a.727.727 0 1 1-1.454-.002.727.727 0 0 1 1.454.002Zm6.23-1.793a.727.727 0 1 1-1.453-.002.727.727 0 0 1 1.454.002Zm4.535-3.846a.727.727 0 1 1-.002 1.453.727.727 0 0 1 .002-1.453Zm-7.077-5.893 6.416 4.282c-5.556 4.623-13.05 6.418-20.087 4.844l13.67-9.126ZM13.29 27.948a16.382 16.382 0 0 0 3.138 2.02c-.354.387-.57.901-.57 1.466 0 1.2.977 2.177 2.178 2.177a2.18 2.18 0 0 0 2.171-2.332c.669.143 1.349.245 2.038.304a2.18 2.18 0 0 0 2.029 2.966 2.18 2.18 0 0 0 1.971-3.1 16.275 16.275 0 0 0 5.114-1.694l-8.14 12.309h-9.93V27.948Zm20.729.418v6.778l-4.577 6.92H24.96l9.059-13.698Zm-2.836 13.698 3.562-5.386 3.561 5.386h-7.123Zm9.2 0v-6.27l4.146 6.27h-4.147Z" fill="#fff"/><path d="M19.871 13.247c.191 0 .378-.077.513-.212a.733.733 0 0 0 .213-.514.733.733 0 0 0-.213-.513.732.732 0 0 0-.513-.212.73.73 0 0 0-.726.725.73.73 0 0 0 .213.514.729.729 0 0 0 .513.212Z" fill="#fff"/><circle cx="28.176" cy="28.437" r="27.676" stroke="#fff"/></svg>