<svg width="57" height="57" fill="none" xmlns="http://www.w3.org/2000/svg"><path d="m15.76 9.638-.016 1.088c.949.013 1.72.796 1.72 1.745h1.089a2.844 2.844 0 0 0-2.794-2.833ZM13.73 10.453l.764.776a1.75 1.75 0 0 1 .704-.424l-.324-1.04a2.846 2.846 0 0 0-1.144.688ZM12.886 12.47h1.088c0-.28.065-.55.193-.798l-.967-.499a2.841 2.841 0 0 0-.314 1.298Z" fill="#fff"/><path d="m17.887 19.949 3.89 3.89-3.417 3.417 4.15 4.15.77-.77-3.38-3.38 7.187-7.188.304.305H34v-1.089h-6.157l-3.68-3.68h5.144v1.921h-.38v-1.014h-1.089v2.103h2.557v-1.536l3.46-2.67h6.959v-1.09h-6.959l-3.46-2.671V8.936h-2.557v2.103h1.089v-1.014h.38v1.922h-8.589l-.758.753a4.24 4.24 0 0 0-1.235-3.233 4.254 4.254 0 0 0-6.01 0 4.254 4.254 0 0 0 0 6.008 4.235 4.235 0 0 0 3.234 1.236l-2.53 2.535H9.443v3.657h5.49l2.954-2.954Zm12.508-7.926 2.383 1.84-2.384 1.84v-3.68Zm-7.848 11.046-5.707-5.706 1.5-1.5.83.828-.664.662 1.723 1.723.663-.663.72.72-.663.662 1.722 1.723.663-.663.713.713-1.5 1.5Zm-2.5-5.716.552-.553.183.183-.553.553-.183-.183Zm2.441 2.442.553-.553.183.183-.553.553-.183-.183Zm6.818-6.76v1.48h-6.233l-1.48-1.48h7.713Zm-8.695.557 5.706 5.706-1.5 1.5-.714-.713.66-.66-1.722-1.722-.66.66-.72-.72.66-.66-1.722-1.722-.66.66-.828-.828 1.5-1.5Zm-4.892 2.039a3.139 3.139 0 0 1-2.234-.926 3.164 3.164 0 0 1 0-4.469 3.15 3.15 0 0 1 2.234-.924c.81 0 1.619.308 2.235.925a3.164 3.164 0 0 1 0 4.468 3.14 3.14 0 0 1-2.235.926Zm-5.188 6.183v-1.48h3.337l2.203-2.201 1.046 1.046-2.636 2.635h-3.95Z" fill="#fff"/><path d="M27.9 22.941h2.944v-1.089h-3.39l-3.476 3.418-1.986 1.986 2.334 2.334.77-.77-1.564-1.564 1.212-1.213 3.156-3.102ZM39.53 17.997l-1.077-.97-16.981 16.977.802.83 1.92.03 15.308-14.935.029-1.932Zm-1.11 1.467L23.758 33.768l-.503-.007 15.178-15.176-.013.879ZM46.06 37.72c-1.698 0-2.527-.334-3.404-.687-.935-.376-1.902-.765-3.81-.765-1.91 0-2.876.389-3.811.765-.877.353-1.706.686-3.404.686s-2.527-.333-3.404-.686c-.935-.376-1.901-.765-3.81-.765-1.91 0-2.876.389-3.811.765-.877.353-1.706.686-3.404.686-1.699 0-2.527-.333-3.404-.686-.935-.376-1.902-.765-3.811-.765h-.544v9.116h37.161v-7.665h-.544Zm-.544 6.575H10.53v-6.926c1.342.063 2.082.361 2.86.674.935.376 1.902.765 3.81.765 1.91 0 2.877-.389 3.811-.765.878-.353 1.706-.686 3.405-.686 1.698 0 2.526.333 3.404.686.934.376 1.901.765 3.81.765 1.91 0 2.876-.389 3.81-.765.878-.353 1.706-.686 3.404-.686 1.699 0 2.527.333 3.404.686.842.339 1.71.688 3.267.754v5.498Z" fill="#fff"/><path d="M39.665 39.555c1.171.089 1.858.365 2.584.657.503.203 1.023.412 1.701.56l.233-1.063c-.59-.13-1.045-.313-1.527-.507-.772-.31-1.57-.631-2.91-.732l-.081 1.085ZM11.826 39.55c.319.068.627.158.97.283l.373-1.023a8.165 8.165 0 0 0-1.116-.325l-.227 1.065ZM20.606 39.054c-.878.353-1.706.687-3.404.687H17.2a8.981 8.981 0 0 1-1.714-.147l-.207 1.07c.579.111 1.207.166 1.921.166 1.91 0 2.877-.39 3.811-.765.347-.14.674-.272 1.05-.384l-.31-1.043a12.62 12.62 0 0 0-1.146.416ZM13.455 40.09c.343.138.684.272 1.068.387l.313-1.043a11.127 11.127 0 0 1-.975-.354l-.406 1.01ZM46.604 13.318H41.9v1.09h4.703v-1.09ZM18.541 28.99H15.54v1.09h3.002v-1.09ZM12.999 28.99H11.91v1.09H13v-1.09ZM14.813 28.99h-1.088v1.09h1.088v-1.09ZM14.918 25.465h-4.355v1.09h4.355v-1.09ZM17.282 25.465h-1.275v1.09h1.275v-1.09ZM43.81 33.862h-1.07v1.088h1.07v-1.088ZM42.014 33.862h-1.09v1.088h1.09v-1.088ZM40.199 33.862H39.11v1.088H40.2v-1.088ZM42.22 28.361h-1.088v1.09h1.089v-1.09ZM36.777 28.361h-1.089v1.09h1.09v-1.09ZM40.406 28.361h-1.088v1.09h1.088v-1.09ZM38.592 28.361h-1.09v1.09h1.09v-1.09Z" fill="#fff"/><circle cx="28.176" cy="28.176" r="27.676" stroke="#fff"/></svg>