<svg aria-hidden="true" style="width:0;height:0;position:absolute;overflow:hidden" xmlns="http://www.w3.org/2000/svg"><defs><symbol id="burger-menu" viewBox="0 0 32 32"><path d="M2.286 3.429h27.429v3.429H2.286V3.429zM2.286 13.714h27.429v3.429H2.286v-3.429zM2.286 24h27.429v3.429H2.286V24z"/></symbol><symbol id="phone" viewBox="0 0 32 32"><path fill="none" stroke="#fff" style="stroke:var(--color1,#fff)" stroke-width="1.143" d="M31.429 16c0 8.521-6.908 15.429-15.429 15.429S.571 24.521.571 16 7.479.571 16 .571 31.429 7.479 31.429 16z"/><path fill="#fff" style="fill:var(--color1,#fff)" d="M15.712 9.136h.037a6.74 6.74 0 0 1 4.801 1.982 6.752 6.752 0 0 1 1.986 4.839.747.747 0 0 0 .742.75h.004c.41 0 .744-.332.746-.743a8.228 8.228 0 0 0-2.423-5.901 8.22 8.22 0 0 0-5.856-2.419h-.041a.746.746 0 0 0 .004 1.493zM24.813 22.248a2.826 2.826 0 0 0-.867-1.942c-1.042-1.005-1.915-1.585-2.747-1.825-1.147-.332-2.209-.03-3.158.896l-.004.004-1.01 1.002c-.627-.352-1.846-1.128-3.18-2.461l-.098-.098c-1.325-1.325-2.105-2.551-2.46-3.18l1.001-1.009.004-.004c.926-.948 1.227-2.011.896-3.158-.241-.832-.821-1.705-1.825-2.747-.513-.532-1.203-.84-1.941-.867s-1.449.231-1.999.724l-.021.019-.029.028c-1.095 1.095-1.669 2.629-1.66 4.434.015 3.067 1.701 6.575 4.51 9.383l.007.007a18.204 18.204 0 0 0 1.782 1.551.746.746 0 1 0 .908-1.184 16.6 16.6 0 0 1-1.642-1.429l-.007-.007c-2.533-2.535-4.052-5.648-4.066-8.329-.007-1.391.411-2.551 1.21-3.358l.006-.005a1.342 1.342 0 0 1 1.869.067c1.932 2.003 1.792 2.949.938 3.824l-1.383 1.393a.746.746 0 0 0-.152.829c.035.079.884 1.956 3 4.071l.098.098c2.115 2.115 3.992 2.965 4.071 3a.746.746 0 0 0 .829-.152l1.393-1.383c.875-.854 1.821-.994 3.825.938.525.506.554 1.327.067 1.869l-.005.006c-.8.792-1.948 1.21-3.324 1.21h-.034c-1.099-.006-2.373-.307-3.682-.872a.746.746 0 1 0-.591 1.371c1.513.653 2.948.987 4.265.994h.042c1.788 0 3.306-.574 4.392-1.66l.028-.029.019-.021c.494-.55.751-1.26.724-1.999z"/><path fill="#fff" style="fill:var(--color1,#fff)" d="M19.497 12.175a4.1 4.1 0 0 0-1.938-1.115.746.746 0 0 0-.398 1.438c.302.083.758.21 1.28.732.503.503.636.956.725 1.257l.011.036a.747.747 0 0 0 1.431-.423l-.01-.034c-.115-.391-.329-1.119-1.101-1.89z"/></symbol><symbol id="telegram" viewBox="0 0 32 32"><path fill="none" stroke="#fff" style="stroke:var(--color1,#fff)" stroke-width="1.143" d="M31.429 16c0 8.521-6.908 15.429-15.429 15.429S.571 24.521.571 16 7.479.571 16 .571 31.429 7.479 31.429 16z"/><path fill="#fff" style="fill:var(--color1,#fff)" d="m7.667 14.333 15.427-6.256c.716-.272 1.341.184 1.109 1.322l.001-.001-2.627 13.015c-.195.923-.716 1.147-1.445.712l-4-3.101-1.929 1.955c-.213.224-.393.414-.807.414l.284-4.282 7.413-7.044c.323-.299-.072-.467-.497-.17l-9.161 6.067-3.949-1.296c-.857-.286-.876-.902.181-1.336z"/></symbol></defs></svg>