<svg aria-hidden="true" style="width:0;height:0;position:absolute;overflow:hidden" xmlns="http://www.w3.org/2000/svg"><defs><symbol id="icon-b-day" viewBox="0 0 32 32"><path fill="#7bb83e" style="fill:var(--color1,#7bb83e)" d="M11.656 19.377c-.008-.042-.02-.083-.036-.122s-.035-.077-.057-.113a.61.61 0 0 0-1.094.114.6.6 0 0 0-.048.249.683.683 0 0 0 .182.46.572.572 0 0 0 .203.141.611.611 0 0 0 .238.049.62.62 0 0 0 .576-.401.683.683 0 0 0 .036-.376z"/><path fill="#7bb83e" style="fill:var(--color1,#7bb83e)" d="M31.28 30.603h-1.291V20.8c0-1.073-.837-1.946-1.865-1.946H27.06v-6.412c0-1.073-.837-1.946-1.865-1.946h-1.913V8.609a2.49 2.49 0 0 0 1.166-.691c.767-.8.96-2.02.48-3.035l-1.71-3.614c-.105-.222-.322-.362-.559-.362s-.454.14-.559.362l-1.71 3.614a2.725 2.725 0 0 0 .48 3.035c.334.348.738.578 1.166.691v1.887h-5.461V7.702a2.5 2.5 0 0 0 1.166-.691c.767-.8.96-2.02.48-3.035L16.511.362C16.406.14 16.189 0 15.952 0s-.454.14-.559.362l-1.71 3.614a2.725 2.725 0 0 0 .48 3.035c.334.348.738.578 1.166.691v2.794H9.868V8.611a2.487 2.487 0 0 0 1.166-.693c.767-.8.96-2.02.48-3.035l-1.71-3.614c-.105-.222-.322-.362-.559-.362s-.454.14-.559.362l-1.71 3.614a2.725 2.725 0 0 0 .48 3.035 2.49 2.49 0 0 0 1.166.693v1.885H6.709c-1.029 0-1.865.873-1.865 1.946v6.412H3.78c-1.028 0-1.865.873-1.865 1.946v9.803H.624c-.344 0-.623.291-.623.65s.279.65.623.65h30.657c.344 0 .623-.291.623-.65s-.279-.65-.623-.65zM21.751 6.999a1.382 1.382 0 0 1-.243-1.54l1.151-2.433 1.151 2.433a1.382 1.382 0 0 1-.243 1.54 1.28 1.28 0 0 1-.285.223 1.24 1.24 0 0 1-1.246 0 1.273 1.273 0 0 1-.285-.223zm-6.707-.907a1.382 1.382 0 0 1-.243-1.54l1.151-2.433 1.151 2.433a1.382 1.382 0 0 1-.243 1.54 1.28 1.28 0 0 1-.285.223 1.24 1.24 0 0 1-1.246 0 1.303 1.303 0 0 1-.285-.223zm-6.708.907a1.382 1.382 0 0 1-.243-1.54l1.151-2.433 1.151 2.433a1.382 1.382 0 0 1-.243 1.54 1.28 1.28 0 0 1-.285.223 1.24 1.24 0 0 1-1.246 0 1.273 1.273 0 0 1-.285-.223zm-1.628 4.797h18.486c.341 0 .619.29.619.646v2.041c-.275.09-.57.131-.919.131-.929 0-1.353-.295-1.89-.668-.598-.416-1.275-.887-2.582-.887s-1.984.471-2.581.887c-.537.373-.961.668-1.89.668s-1.353-.295-1.89-.668c-.598-.416-1.275-.887-2.581-.887s-1.984.471-2.581.887c-.537.373-.961.668-1.89.668-.349 0-.645-.041-.919-.131v-2.041c0-.356.278-.646.619-.646zm22.035 18.807H3.16v-6.248c.53.102.867.336 1.267.614.598.416 1.275.887 2.581.887s1.984-.471 2.581-.887c.537-.373.961-.668 1.89-.668s1.353.295 1.89.668c.598.416 1.275.887 2.581.887s1.984-.471 2.581-.887c.537-.373.961-.668 1.89-.668s1.353.295 1.89.668c.598.416 1.275.887 2.582.887s1.984-.471 2.582-.887c.4-.278.737-.512 1.267-.614v6.248zm0-7.563c-.915.122-1.464.503-1.958.847-.537.373-.961.668-1.89.668s-1.353-.295-1.89-.668c-.598-.416-1.275-.887-2.581-.887s-1.984.471-2.581.887c-.537.373-.961.668-1.89.668s-1.353-.295-1.89-.668c-.598-.416-1.275-.887-2.581-.887s-1.984.471-2.581.887c-.537.373-.961.668-1.89.668s-1.353-.295-1.89-.668c-.494-.344-1.043-.726-1.958-.847V20.8c0-.356.278-.646.619-.646h4.782c.344 0 .623-.291.623-.65s-.279-.65-.623-.65H6.092v-3.031c.287.061.59.092.919.092 1.306 0 1.984-.471 2.581-.887.537-.373.961-.668 1.89-.668s1.353.295 1.89.668c.598.416 1.275.887 2.581.887s1.984-.471 2.581-.887c.537-.373.961-.668 1.89-.668s1.353.295 1.89.668c.598.416 1.275.887 2.582.887.33 0 .633-.031.919-.092v3.031H13.531c-.344 0-.623.291-.623.65s.279.65.623.65h14.595c.341 0 .619.29.619.646v2.24z"/><path fill="#7bb83e" style="fill:var(--color1,#7bb83e)" d="M6.077 28.988a.712.712 0 0 0-.092-.234.616.616 0 0 0-.397-.277.618.618 0 0 0-.697.388.715.715 0 0 0-.048.249.69.69 0 0 0 .105.361.615.615 0 0 0 .64.276.59.59 0 0 0 .224-.097.68.68 0 0 0 .23-.292.632.632 0 0 0 .047-.249.675.675 0 0 0-.012-.127zM12.774 27.044a.634.634 0 0 0-.093-.234.68.68 0 0 0-.173-.18.664.664 0 0 0-.224-.097.59.59 0 0 0-.469.097.608.608 0 0 0-.172.18.694.694 0 0 0-.105.361.675.675 0 0 0 .182.46.572.572 0 0 0 .203.141.611.611 0 0 0 .478 0 .667.667 0 0 0 .28-.24.694.694 0 0 0 .105-.361.683.683 0 0 0-.012-.127zM19.978 28.988a.634.634 0 0 0-.093-.234c-.022-.035-.049-.068-.077-.099s-.06-.057-.095-.081a.633.633 0 0 0-.224-.097.59.59 0 0 0-.467.097.667.667 0 0 0-.173.18.694.694 0 0 0-.104.361.683.683 0 0 0 .182.46.616.616 0 0 0 .44.191.62.62 0 0 0 .575-.401.715.715 0 0 0 .048-.249.675.675 0 0 0-.012-.127zM27.048 27.433a.712.712 0 0 0-.092-.234.615.615 0 0 0-.518-.289.62.62 0 0 0-.575.401.632.632 0 0 0-.047.249.675.675 0 0 0 .181.46.667.667 0 0 0 .203.141.602.602 0 0 0 .756-.24.655.655 0 0 0 .104-.361.683.683 0 0 0-.012-.127zM20.848 16.807a.68.68 0 0 0-.171-.333.616.616 0 0 0-.562-.178.58.58 0 0 0-.224.097.667.667 0 0 0-.172.18.655.655 0 0 0-.104.361.683.683 0 0 0 .181.46.572.572 0 0 0 .203.141.625.625 0 0 0 .238.05.624.624 0 0 0 .345-.11.608.608 0 0 0 .173-.18.655.655 0 0 0 .093-.234.683.683 0 0 0 0-.254zM12.712 15.921c-.008-.042-.02-.083-.036-.122s-.035-.077-.057-.113a.673.673 0 0 0-.172-.18.633.633 0 0 0-.225-.097.59.59 0 0 0-.469.097.657.657 0 0 0-.172.18.665.665 0 0 0-.093.235.683.683 0 0 0 .093.488.565.565 0 0 0 .172.18.633.633 0 0 0 .347.11.606.606 0 0 0 .441-.191.673.673 0 0 0 .17-.587z"/></symbol><symbol id="icon-cafe" viewBox="0 0 31 32"><path fill="#fff" style="fill:var(--color2,#fff)" d="M25.71 14.227a.329.329 0 0 0-.094-.234l-2.646-2.646a.33.33 0 0 0-.234-.097h-3.307v-.661h1.653a.33.33 0 0 0 .331-.331V4.967a.33.33 0 0 0-.331-.331H9.839a.33.33 0 0 0-.331.331v5.291c0 .182.148.331.331.331h1.653v.661H8.185a.33.33 0 0 0-.234.097l-2.646 2.646a.329.329 0 0 0-.094.234h-.003v1.653c0 .586.257 1.111.661 1.475v7.454a.33.33 0 0 0 .331.331h18.519a.33.33 0 0 0 .331-.331v-7.454c.405-.363.661-.889.661-1.475v-1.653h-.003zm-6.942-2.977h-.661v-.661h.661v.661zm-1.323-.661v.661h-3.968v-.661h3.968zM10.17 5.298h10.582v4.63H10.17v-4.63zm1.984 5.291h.661v.661h-.661v-.661zm-3.831 1.323H22.6l1.984 1.984H6.339l1.984-1.984zM5.871 15.88v-1.323h2.646v1.323a1.324 1.324 0 0 1-2.646 0zm3.307-1.323h2.646v1.323a1.324 1.324 0 0 1-2.646 0v-1.323zm3.307 0h2.646v1.323a1.324 1.324 0 0 1-2.646 0v-1.323zm3.307 0h2.646v1.323a1.324 1.324 0 0 1-2.646 0v-1.323zm3.307 0h2.646v1.323a1.324 1.324 0 0 1-2.646 0v-1.323zm-5.953 9.921h-1.984v-4.63h1.984v4.63zm-2.645 0H8.517v-4.63h1.984v4.63zm11.905 0h-1.984v-4.63h1.984v4.63zm-2.646 0h-1.984v-4.63h1.984v4.63zm4.63 0h-1.323v-4.96a.33.33 0 0 0-.331-.331h-5.291a.33.33 0 0 0-.331.331v4.96h-3.307v-4.96a.33.33 0 0 0-.331-.331H8.185a.33.33 0 0 0-.331.331v4.96H6.531v-6.73a1.98 1.98 0 0 0 2.314-.774 1.982 1.982 0 0 0 3.306 0 1.982 1.982 0 0 0 3.306 0 1.982 1.982 0 0 0 3.306 0 1.982 1.982 0 0 0 3.306 0c.356.536.964.89 1.653.89.232 0 .454-.042.661-.116v6.73zm-.661-7.275c-.73 0-1.323-.593-1.323-1.323v-1.323h2.646v1.323c0 .73-.593 1.323-1.323 1.323z"/><path fill="#fff" style="fill:var(--color2,#fff)" d="M10.832 6.951v1.323c0 .547.445.992.992.992h.992v-.661h-.992a.331.331 0 0 1-.331-.331V6.951c0-.182.148-.331.331-.331h.992v-.661h-.992a.993.993 0 0 0-.992.992zM16.123 6.621v2.646h.661V7.944h.992v-.661h-.992v-.661h.992v-.661h-.992a.662.662 0 0 0-.661.661zM18.437 6.621v1.984c0 .365.297.661.661.661h.992v-.661h-.992v-.661h.992v-.661h-.992v-.661h.992v-.661h-.992a.662.662 0 0 0-.661.661zM14.469 5.959a.993.993 0 0 0-.992.992v2.315h.661v-.661h.661v.661h.661V6.951a.993.993 0 0 0-.992-.992zm-.331 1.984v-.992a.331.331 0 0 1 .662 0v.992h-.661z"/><path fill="none" stroke="#fff" style="stroke:var(--color2,#fff)" stroke-width=".552" d="M30.815 15.98c0 8.433-6.836 15.269-15.269 15.269S.277 24.413.277 15.98 7.113.711 15.546.711 30.815 7.547 30.815 15.98z"/></symbol><symbol id="icon-catering" viewBox="0 0 32 32"><path fill="#7bb83e" style="fill:var(--color1,#7bb83e)" d="M31.371 17.547h-3.722v-1.47l.86-1.721h1.267v-1.063h-1.095a4.789 4.789 0 0 0-4.754-4.253v-.532a.531.531 0 0 0-1.064 0v.532a4.789 4.789 0 0 0-4.754 4.253h-1.095v1.063h1.267l.86 1.721v1.47h-6.38v-1.47l.86-1.721h1.267v-1.063h-1.095A4.789 4.789 0 0 0 9.039 9.04v-.532a.531.531 0 0 0-1.064 0v.532a4.789 4.789 0 0 0-4.754 4.253H2.126v1.063h1.267l.86 1.721v1.47H.531a.531.531 0 0 0-.532.532v11.698a.531.531 0 0 0 .532.532c.297-.001.59.058.863.175s.519.287.724.501a3.251 3.251 0 0 0 4.532 0 2.2 2.2 0 0 1 3.176 0 3.251 3.251 0 0 0 4.532 0 2.21 2.21 0 0 1 1.588-.676 2.19 2.19 0 0 1 1.588.676 3.255 3.255 0 0 0 4.534 0 2.2 2.2 0 0 1 3.176 0 3.255 3.255 0 0 0 4.536 0 2.178 2.178 0 0 1 1.589-.676.531.531 0 0 0 .532-.532V18.079a.531.531 0 0 0-.532-.532zM19.47 14.356h7.85l-.532 1.063h-6.787l-.532-1.063zm3.394-4.253h1.063a3.728 3.728 0 0 1 3.685 3.19H19.18a3.733 3.733 0 0 1 3.685-3.19zm-2.659 6.38h6.38v1.063h-6.38v-1.063zM4.582 14.356h7.85l-.532 1.063H5.113l-.532-1.063zm3.394-4.253h1.063a3.728 3.728 0 0 1 3.685 3.19H4.292a3.733 3.733 0 0 1 3.685-3.19zm-2.659 6.38h6.38v1.063h-6.38v-1.063zm25.522 12.801a3.374 3.374 0 0 0-1.736.88c-.266.252-.58.448-.922.578v-4.688h-1.063v4.751a2.383 2.383 0 0 1-1.193-.642 3.562 3.562 0 0 0-1.465-.824v-5.412h-1.063v5.331a3.297 3.297 0 0 0-2.005.904 2.2 2.2 0 0 1-3.176 0 3.406 3.406 0 0 0-1.734-.875l.004-2.702h-1.063l-.004 2.703a3.39 3.39 0 0 0-1.735.875 2.781 2.781 0 0 1-.919.576v-7.877h-1.063v7.942a2.383 2.383 0 0 1-1.193-.642 3.558 3.558 0 0 0-1.465-.825v-4.88H7.981v4.8a3.294 3.294 0 0 0-2.003.904 2.2 2.2 0 0 1-3.176 0 3.37 3.37 0 0 0-1.734-.879V18.608h29.776v10.674z"/><path fill="#7bb83e" style="fill:var(--color1,#7bb83e)" d="M2.127 24.459H3.19v-3.722h1.595v-1.063H2.126v4.785zM26.586 20.737h2.127v2.127h1.063v-3.19h-3.19v1.063zM28.181 0H3.722a.531.531 0 0 0-.532.532v1.907L.156 5.473a.528.528 0 0 0-.115.579.532.532 0 0 0 .491.329h30.839a.526.526 0 0 0 .491-.329.53.53 0 0 0-.115-.579l-3.034-3.034V.532A.531.531 0 0 0 28.181 0zM4.254 1.063h23.395v1.063H4.254V1.063zM1.816 5.317 3.943 3.19h24.018l2.127 2.127H1.816z"/></symbol><symbol id="icon-corp" viewBox="0 0 33 32"><path fill="#fff" style="fill:var(--color2,#fff)" d="M15.607 12.154h.412a.306.306 0 1 0 0-.612h-.298v-.856a.306.306 0 1 0-.612 0v.971c0 .274.223.496.497.496zM14.187 11.104v-.689a.306.306 0 1 0-.612 0v.689a.306.306 0 1 0 .612 0zM14.461 9.881a.307.307 0 0 0 .432-.001.306.306 0 0 0-.001-.432 1.435 1.435 0 0 0-2.02 0 .305.305 0 1 0 .431.433.824.824 0 0 1 1.158 0zM17.53 10.109a.306.306 0 0 0-.306.306v.689a.306.306 0 1 0 .612 0v-.689a.306.306 0 0 0-.306-.306zM16.951 9.881a.824.824 0 0 1 1.158 0 .308.308 0 0 0 .433-.001.306.306 0 0 0-.001-.432 1.435 1.435 0 0 0-2.02 0 .305.305 0 1 0 .431.433zM16.844 12.361H14.59a.57.57 0 0 0-.57.568c0 .931.761 1.688 1.697 1.688s1.696-.757 1.696-1.688a.57.57 0 0 0-.57-.568zm-1.127 1.645c-.584 0-1.062-.46-1.085-1.034h2.169a1.083 1.083 0 0 1-1.084 1.034z"/><path fill="#fff" style="fill:var(--color2,#fff)" d="M26.564 15.487v-2.724c0-.3-.245-.545-.546-.545h-2.26a.546.546 0 0 0-.546.545v2.724c0 .816.592 1.496 1.37 1.639v1.472h-.281a.8.8 0 0 0-.589.259l-1.197-1.653a2.161 2.161 0 0 0-2.143-1.861h-1.25l-.407-.853a3.64 3.64 0 0 0 1.013-1.802h.318c.555 0 1.006-.45 1.006-1.002v-.843c0-.406-.244-.756-.592-.913v-.968a.306.306 0 1 0-.612 0v.879h-.04c-.064-.97-.48-1.794-1.215-2.393a3.608 3.608 0 0 0-.462-.32v-.465a2.38 2.38 0 0 0-.108-.71 1.25 1.25 0 0 1 .358-.052h.201c.698 0 1.266.564 1.266 1.258v.337a.306.306 0 1 0 .612 0v-.337a1.875 1.875 0 0 0-1.877-1.869h-.201c-.216 0-.424.037-.618.105a2.399 2.399 0 0 0-2.028-1.118h-2.365a2.394 2.394 0 0 0-2.396 2.386v3.268a1.002 1.002 0 0 0-.592.913v.843c0 .553.451 1.002 1.006 1.002h.318a3.64 3.64 0 0 0 1.013 1.802l-.407.853h-1.517a2.16 2.16 0 0 0-2.163 2.152v7.13c0 .283.23.513.513.513h12.878c.283 0 .513-.23.513-.513v-2.252l.599.828a1.516 1.516 0 0 0 2.107.341 1.495 1.495 0 0 0 .627-1.288.8.8 0 0 0 .487-.734v-.375a.306.306 0 1 0-.612 0v.375a.188.188 0 0 1-.189.187h-1.255a.188.188 0 0 1-.189-.187v-.203c0-.055.025-.108.068-.143a.305.305 0 0 0 0-.471.187.187 0 0 1-.068-.143v-.203c0-.055.025-.108.068-.143a.305.305 0 0 0 0-.471.187.187 0 0 1-.068-.143v-.203c0-.103.085-.187.189-.187h1.255c.104 0 .189.084.189.187v.322a.306.306 0 1 0 .612 0v-.322a.8.8 0 0 0-.801-.798h-.362v-1.472a1.672 1.672 0 0 0 1.37-1.639zm-7.038 2.123-.816.573a.555.555 0 0 0-.143.757l.917 1.376a.17.17 0 0 1 .006.102.437.437 0 0 0-.017.038l-1.458 4.07h-.267v-9.359c.167-.081.328-.174.48-.278l1.297 2.721zm-2.388 2.346-.295.425-.284-1.459.345-.506.234.16v1.38zm-2.841-1.404.224-.15.355.52-.283 1.459-.295-.425v-1.404zm1.155.131-.424-.622.687-.461.685.47-.418.613a.302.302 0 0 0-.047.23l.421 2.168-.639.921-.639-.921.421-2.168a.302.302 0 0 0-.047-.23zm1.686-.848-1.207-.828a.373.373 0 0 0 .032-.036l1.162-1.57.013-.003v2.438zm-1.421-1.56-.553-.748.111.002h.884l.111-.002-.553.748zm-1.407-.874 1.162 1.57c.01.013.02.025.032.036l-1.207.809v-2.419l.013.004zm-.013 5.627 1.169 1.684a.306.306 0 0 0 .502 0l1.169-1.684v3.499h-2.841v-3.499zm6.144-9.343a.393.393 0 0 1-.395.391h-.233c.003-.063.005-.126.005-.189v-1.436h.229c.218 0 .395.175.395.391v.843zm-7.07-6.799h2.365c.984 0 1.785.796 1.785 1.775v.173a5.06 5.06 0 0 0-1.804-.319c-1.12 0-2.142.33-2.877.93s-1.152 1.424-1.215 2.393h-.039V6.659c0-.979.801-1.775 1.785-1.775zm-1.983 7.19a.393.393 0 0 1-.394-.391v-.843c0-.216.177-.391.394-.391h.229v1.436c0 .063.002.127.005.189h-.233zm.84-.189v-1.784c0-1.481 1.079-2.976 3.489-2.976s3.489 1.495 3.489 2.976v1.784a3.043 3.043 0 0 1-3.047 3.031h-.884a3.043 3.043 0 0 1-3.047-3.031zm-2.985 5.608c0-.85.696-1.541 1.552-1.541h1.226l-.671 1.408a.598.598 0 0 0 .191.737l.785.551-.885 1.328a.755.755 0 0 0-.05.7l.379 1.058a.306.306 0 0 0 .576-.206l-.385-1.074a.412.412 0 0 0-.016-.037.161.161 0 0 1 .005-.102l.918-1.377a.554.554 0 0 0-.142-.757l-.816-.573 1.298-2.721c.152.104.312.197.48.278v9.359h-.267l-.577-1.611a.305.305 0 1 0-.576.206l.503 1.405h-2.409V19.77a.306.306 0 1 0-.612 0v4.756h-.506v-7.031zm12.682 7.031h-3.259l1.379-3.848a.755.755 0 0 0-.05-.7l-.885-1.328.785-.551a.598.598 0 0 0 .192-.735l-.672-1.41h.959c.856 0 1.552.691 1.552 1.541v7.031zm2.376-2.208h.958a.883.883 0 0 1-.373.727.9.9 0 0 1-1.256-.203l-1.095-1.511v-3.056l.965 1.332a.794.794 0 0 0 .096.371.799.799 0 0 0-.096.379v.203c0 .134.034.264.096.379a.796.796 0 0 0-.096.379v.203a.8.8 0 0 0 .8.798zm-.478-9.489h2.13v.751h-2.13v-.751zm1.065 3.714a1.062 1.062 0 0 1-1.065-1.056v-1.296h2.13v1.296c0 .582-.478 1.056-1.065 1.056z"/><path fill="none" stroke="#fff" style="stroke:var(--color2,#fff)" stroke-width=".561" d="M31.779 15.818c0 8.581-6.956 15.537-15.537 15.537S.705 24.399.705 15.818 7.661.281 16.242.281s15.537 6.956 15.537 15.537z"/></symbol><symbol id="icon-corp-2" viewBox="0 0 32 32"><path fill="#7bb83e" style="fill:var(--color1,#7bb83e)" d="M16.631 13.653a.54.54 0 0 0-.394.113.53.53 0 0 0-.196.36l-.085.813a.53.53 0 0 1-.351.441l-3.54 1.233a.53.53 0 0 0-.356.531v4.746c0 .07.013.139.039.204s.065.124.115.173l2.88 2.891c.091.095.144.22.149.351v4.783a.531.531 0 0 1-1.064 0V25.95c0-.07-.013-.139-.039-.204s-.065-.124-.115-.173l-3.077-3.098c-.05-.049-.109-.088-.173-.115s-.134-.04-.204-.039H9.045a.531.531 0 0 0-.532.532v4.252a.535.535 0 0 1-.239.442l-4.783 3.189c-.117.077-.26.104-.397.077s-.258-.109-.336-.225c-.077-.117-.104-.26-.077-.397s.109-.258.225-.336l4.305-2.875a.535.535 0 0 0 .239-.442v-3.683a.531.531 0 0 0-1.064 0v3.396l-4.071 2.716a1.587 1.587 0 0 0-.645 1.789 1.6 1.6 0 0 0 1.527 1.134c.314 0 .621-.092.882-.266l4.783-3.189a1.596 1.596 0 0 0 .712-1.329v-3.72h.42l2.769 2.785v4.124a1.593 1.593 0 1 0 3.188 0v-4.783a1.596 1.596 0 0 0-.462-1.127l-2.726-2.737v-4.151l3.189-1.111c.285-.099.535-.276.724-.511s.306-.519.339-.818l.09-.813a.528.528 0 0 0-.277-.529.528.528 0 0 0-.201-.061z"/><path fill="#7bb83e" style="fill:var(--color1,#7bb83e)" d="m5.795 20.195.595-.478v1.01a.531.531 0 0 0 1.064 0v-2.126a.536.536 0 0 0-.302-.478.525.525 0 0 0-.532.059l-1.456 1.159a.527.527 0 0 1-.409.111l-3.189-.484h-.085a.53.53 0 0 1-.404-.59.531.531 0 0 1 .213-.346.532.532 0 0 1 .393-.101l2.737.415a.525.525 0 0 0 .41-.107l2.732-2.174c.136-.058.279-.099.425-.122h.531a.531.531 0 0 0 .532-.532v-.223a.527.527 0 0 0-.319-.489 2.121 2.121 0 0 1-1.23-2.383 2.126 2.126 0 1 1 2.932 2.383.531.531 0 0 0-.319.489v.223a.531.531 0 0 0 .532.532h.329a.535.535 0 0 0 .367-.149.529.529 0 0 1 .191-.122l3.088-1.063a.529.529 0 0 0 .356-.441l.452-4.129a.528.528 0 0 1 .585-.467.535.535 0 0 0 .586-.473.528.528 0 0 0-.467-.585 1.59 1.59 0 0 0-1.576.814 1.577 1.577 0 0 0-.188.594l-.42 3.784-1.557.531a3.192 3.192 0 0 0-1.57-4.432 3.188 3.188 0 0 0-3.489 5.202l-.26.101-.117.069-2.604 2.073-2.508-.377a1.591 1.591 0 0 0-1.767 1.212 1.593 1.593 0 0 0 1.289 1.941l3.189.484a1.587 1.587 0 0 0 1.249-.313zM31.336 4.629a1.588 1.588 0 0 0-1.296-.378 1.645 1.645 0 0 0-1.329 1.653v6.85h-1.345a3.223 3.223 0 0 0 .765-2.657 3.183 3.183 0 0 0-3.878-2.542 3.186 3.186 0 0 0-2.079 4.594l-1.557-.531-.415-3.72a1.64 1.64 0 0 0-1.59-1.52 1.611 1.611 0 0 0-1.18.532 1.589 1.589 0 0 0-.415 1.239l.532 4.783a1.598 1.598 0 0 0 1.063 1.329l3.189 1.111v4.151l-2.726 2.737c-.297.3-.463.705-.462 1.127v4.725a1.644 1.644 0 0 0 1.329 1.653 1.586 1.586 0 0 0 1.303-.362 1.602 1.602 0 0 0 .557-1.232v-4.124l2.769-2.785h.42v8.976a1.644 1.644 0 0 0 1.329 1.653c.088.008.177.008.266 0a1.593 1.593 0 0 0 1.594-1.594V17.542a.531.531 0 0 0-1.064 0v12.755a.54.54 0 0 1-.186.412.516.516 0 0 1-.204.108.515.515 0 0 1-.231.011.58.58 0 0 1-.441-.585V20.73a.531.531 0 0 0-.532-.532h-1.175c-.07 0-.139.013-.204.039s-.124.065-.173.115l-3.077 3.098c-.049.05-.088.109-.115.173s-.04.134-.039.204v4.342a.54.54 0 0 1-.186.412.53.53 0 0 1-.435.119.58.58 0 0 1-.441-.585v-4.73c0-.07.013-.139.039-.204s.065-.124.115-.173l2.88-2.891c.049-.05.088-.109.115-.173s.04-.134.039-.204v-4.746a.525.525 0 0 0-.356-.504l-3.539-1.233a.53.53 0 0 1-.351-.441l-.531-4.783a.536.536 0 0 1 .128-.409.525.525 0 0 1 .399-.18.588.588 0 0 1 .531.531l.446 4.06a.532.532 0 0 0 .356.441l3.088 1.063a.52.52 0 0 1 .191.122c.099.095.23.148.367.149h.335a.531.531 0 0 0 .532-.532v-.223a.527.527 0 0 0-.319-.489 2.121 2.121 0 0 1-1.23-2.383 2.126 2.126 0 1 1 2.932 2.383.531.531 0 0 0-.319.489v.234a.531.531 0 0 0 .532.532h2.657a1.066 1.066 0 0 0 1.063-1.063v-6.85a.58.58 0 0 1 .435-.584.528.528 0 0 1 .441.122.534.534 0 0 1 .186.404v6.909a2.125 2.125 0 0 1-2.126 2.126H27.65a.531.531 0 0 0 0 1.064h1.063a3.189 3.189 0 0 0 3.189-3.189V5.851a1.59 1.59 0 0 0-.564-1.217zM1.607 6.377a1.593 1.593 0 0 0 1.594-1.594V3.189H6.39v1.159a1.596 1.596 0 0 0-2.125 1.479 1.592 1.592 0 0 0 2.081 1.542 1.588 1.588 0 0 0 1.108-1.523V.532A.531.531 0 0 0 6.922 0H2.67a.531.531 0 0 0-.532.532v2.753a1.598 1.598 0 0 0-1.853.589 1.591 1.591 0 0 0-.229 1.331 1.591 1.591 0 0 0 1.55 1.174zm4.251 0a.526.526 0 0 1-.491-.329.529.529 0 0 1 .387-.724.537.537 0 0 1 .546.226.528.528 0 0 1-.066.671c-.1.1-.235.156-.376.156zM3.201 1.063H6.39v1.063H3.201V1.063zM1.607 4.252a.526.526 0 0 1 .491.329.529.529 0 0 1-.387.724.524.524 0 0 1-.545-.226.531.531 0 0 1 .442-.827z"/><path fill="#7bb83e" style="fill:var(--color1,#7bb83e)" d="M20.877 5.782c.254.166.552.255.856.255a1.653 1.653 0 0 0 1.35-.722l1.424-2.243 2.243 1.43a.532.532 0 0 0 .733-.159l1.143-1.796a.53.53 0 0 0-.149-.755l-2.7-1.706a.53.53 0 0 0-.734.159l-1.116 1.791-.935 1.43a1.534 1.534 0 0 0-.399-.367 1.592 1.592 0 0 0-2.145.52 1.59 1.59 0 0 0 .428 2.164zm4.783-4.517 1.791 1.143-.579.898-1.791-1.143.579-.898zm-4.39 2.891a.524.524 0 0 1 .451-.244.57.57 0 0 1 .287.08c.117.077.2.197.229.335a.533.533 0 0 1-.402.633.535.535 0 0 1-.635-.403.535.535 0 0 1 .07-.401zM10.641 4.958a1.59 1.59 0 0 0 1.897 1.217c.412-.091.771-.341.999-.696l1.717-2.689a.53.53 0 0 0-.893-.575l-.914 1.424a1.542 1.542 0 0 0-.393-.367 1.594 1.594 0 0 0-2.2.484 1.55 1.55 0 0 0-.213 1.201zm1.106-.627a.542.542 0 0 1 .335-.233.382.382 0 0 1 .117 0 .536.536 0 0 1 .461.276.533.533 0 0 1-.16.688.537.537 0 0 1-.74-.131.527.527 0 0 1-.014-.589v-.011zM18.082 4.252a.531.531 0 0 0 .532-.532V1.594a.531.531 0 0 0-1.064 0V3.72a.531.531 0 0 0 .532.532zM1.607 10.629v1.594a.531.531 0 0 0 1.064 0v-1.594a.531.531 0 0 0-1.064 0zM12.767 9.035a.531.531 0 1 0 0-1.063.531.531 0 0 0 0 1.063zM10.11 1.594a.53.53 0 1 0 0-1.061.53.53 0 0 0 0 1.061z"/></symbol><symbol id="icon-event" viewBox="0 0 32 32"><path fill="#7bb83e" style="fill:var(--color1,#7bb83e)" d="M.88 11.016c.242.117.516.175.81.175.168 0 .342-.019.521-.058 1.071-.234 1.675-1.057 1.469-2.002L2.502 3.729l4.954-1.081.873 4.003a2.328 2.328 0 0 0-.931.028c-1.095.239-1.694 1.029-1.49 1.965.172.789.822 1.266 1.656 1.266.165 0 .337-.019.514-.057 1.071-.234 1.676-1.057 1.469-2.002L7.977.652a.831.831 0 0 0-.988-.634L1.83 1.143a.826.826 0 0 0-.634.987l1.265 5.801a2.328 2.328 0 0 0-.931.028c-.489.107-.891.325-1.161.631-.32.363-.437.837-.329 1.334.108.494.406.882.84 1.091zm6.998-2.075c-.213.046-.917.148-1.057-.494-.124-.568.433-.778.776-.853a1.72 1.72 0 0 1 .359-.043c.306 0 .593.113.678.499.14.642-.543.843-.755.89zM7.086.955l.17.781-4.954 1.081-.17-.781L7.086.955zM1.07 9.21c.136-.154.37-.273.659-.336a1.72 1.72 0 0 1 .359-.043c.306 0 .593.113.678.499.14.642-.543.844-.756.89-.279.061-.537.044-.725-.046-.176-.085-.285-.232-.332-.448-.046-.21-.009-.374.116-.516zM31.832 23.381a.82.82 0 0 0-.459-.439l-4.922-1.913a.83.83 0 0 0-1.074.473l-2.151 5.538a2.323 2.323 0 0 0-.79-.496c-.467-.181-.922-.221-1.317-.115-.468.126-.826.456-1.011.93-.183.472-.149.959.097 1.373.216.363.577.652 1.044.833.281.109.557.162.817.162.686 0 1.26-.365 1.514-1.019l2.002-5.154 4.726 1.836-1.486 3.824a2.306 2.306 0 0 0-.79-.495c-1.045-.406-1.98-.078-2.327.815-.183.472-.149.959.097 1.373.216.363.577.651 1.044.833.281.109.557.162.818.162.686 0 1.26-.365 1.514-1.019l2.668-6.868a.827.827 0 0 0-.014-.635zm-10.244 5.314c-.267-.103-.472-.259-.579-.439-.1-.169-.11-.351-.029-.557.078-.201.199-.317.382-.366a.822.822 0 0 1 .21-.026c.158 0 .338.037.525.11.273.106.481.257.586.426.097.157.106.324.026.528-.238.613-.918.403-1.121.324zm4.333-6.011.289-.745 4.727 1.836-.289.745-4.727-1.836zm1.264 8.186c-.267-.104-.472-.259-.579-.439-.1-.168-.11-.351-.03-.557.118-.303.351-.395.591-.395.189 0 .382.057.526.113.273.106.481.257.586.426.097.157.106.324.026.528-.238.613-.918.403-1.121.324zM13.725 29.766c-2.874 2.088-7.247 1.405-10.173-1.589-1.706-1.746-2.66-4.038-2.616-6.288.035-1.797.718-3.415 1.922-4.554a6.223 6.223 0 0 1 3.163-1.581 7.564 7.564 0 0 0 4.215-2.299.467.467 0 0 0-.685-.635 6.64 6.64 0 0 1-3.7 2.015 7.162 7.162 0 0 0-3.635 1.821C.828 17.969.042 19.821.002 21.871c-.049 2.498 1.002 5.035 2.882 6.959 1.967 2.013 4.537 3.073 6.98 3.073 1.592 0 3.13-.451 4.41-1.381a.467.467 0 1 0-.55-.756z"/><path fill="#7bb83e" style="fill:var(--color1,#7bb83e)" d="M21.795 20.368c.977-.977 1.444-2.236 1.349-3.64-.074-1.114-.497-2.299-1.226-3.445l2.982-2.982a.467.467 0 1 0-.661-.661l-8.269 8.269c-.178-.441-.444-.846-.79-1.192s-.751-.613-1.192-.79l9.734-9.734 1.983 1.983-.055.055a.467.467 0 1 0 .661.661l.118-.118a.78.78 0 0 0 .231.036h.024a.775.775 0 0 0 .556-.262l.496-.563.532.532a.467.467 0 0 0 .662-.661l-.574-.574.781-.886.555.555a.467.467 0 0 0 .662-.661l-.598-.597.775-.88.402.403a.467.467 0 0 0 .662-.661l-.445-.444.561-.637a.776.776 0 0 0-.033-1.059L29.492.229a.776.776 0 0 0-1.059-.034l-.637.561-.445-.445a.468.468 0 0 0-.661.661l.403.402-.879.774-.603-.603a.467.467 0 1 0-.661.661l.561.561-.887.781-.574-.574a.467.467 0 1 0-.661.661l.532.532-.564.496a.776.776 0 0 0-.229.803L18.62 9.974c-2.627-1.688-5.273-1.698-6.971 0a6.157 6.157 0 0 0-1.023 1.302.468.468 0 0 0 .812.464c.21-.367.495-.728.873-1.105 1.858-1.858 4.403-.723 5.631.018l-5.025 5.025a3.557 3.557 0 0 0-2.801 1.039 3.563 3.563 0 0 0-1.05 2.534c0 .957.373 1.857 1.05 2.534s1.576 1.05 2.533 1.05c.957 0 1.857-.373 2.534-1.05a3.558 3.558 0 0 0 1.038-2.802l5.019-5.019c.733 1.235 1.839 3.801-.104 5.744a4.51 4.51 0 0 1-1.039.778c-2.125 1.162-3.53 3.075-3.958 5.386a6.245 6.245 0 0 1-1.106 2.593.468.468 0 0 0 .754.554 7.18 7.18 0 0 0 1.272-2.977c.375-2.029 1.613-3.711 3.487-4.736a5.505 5.505 0 0 0 1.251-.938zM28.936.994l1.972 1.972L26.652 7.8l-2.549-2.55L28.936.994zM14.52 21.122c-.5.5-1.165.776-1.872.776s-1.372-.276-1.872-.776S10 19.957 10 19.25s.275-1.373.776-1.873c.5-.5 1.165-.776 1.872-.776s1.372.276 1.872.776.775 1.165.775 1.873-.275 1.372-.775 1.872zM3.976 20.862a1.62 1.62 0 0 0 0 2.288l4.772 4.772c.315.315.73.473 1.144.473s.829-.158 1.144-.473a1.62 1.62 0 0 0 0-2.288l-4.772-4.772c-.306-.305-.712-.474-1.144-.474s-.838.168-1.144.474zm6.398 5.433a.684.684 0 0 1-.966.966l-4.772-4.772a.684.684 0 0 1 .483-1.166c.183 0 .354.071.483.2l4.772 4.772z"/><path fill="#7bb83e" style="fill:var(--color1,#7bb83e)" d="M23.491 9.866a.469.469 0 0 0 .331-.798l-.997-.997a.468.468 0 0 0-.661.661l.997.997a.467.467 0 0 0 .331.137zM22.109 11.247a.469.469 0 0 0 .331-.798l-.997-.997a.468.468 0 0 0-.661.661l.997.997a.467.467 0 0 0 .33.137zM20.728 12.628a.467.467 0 0 0 .33-.798l-.997-.997a.468.468 0 0 0-.661.661l.997.997a.467.467 0 0 0 .331.137zM19.347 14.01a.469.469 0 0 0 .331-.798l-.997-.997a.467.467 0 1 0-.661.661l.997.997a.467.467 0 0 0 .33.137zM16.638 13.596a.467.467 0 0 0 0 .661l.997.997a.467.467 0 1 0 .661-.661l-.997-.997a.468.468 0 0 0-.661 0z"/></symbol><symbol id="icon-family" viewBox="0 0 29 32"><path fill="#7bb83e" style="fill:var(--color1,#7bb83e)" d="M14.635 21.79c1.123 0 2.037-.914 2.037-2.037s-.914-2.037-2.037-2.037c-1.123 0-2.037.914-2.037 2.037s.914 2.037 2.037 2.037zm0-3.139a1.103 1.103 0 1 1-.002 2.206 1.103 1.103 0 0 1 .002-2.206zM23.67 6.751c1.861 0 3.376-1.514 3.376-3.376S25.532-.001 23.67-.001c-1.861 0-3.375 1.514-3.375 3.376s1.514 3.376 3.375 3.376zm0-5.816c1.346 0 2.441 1.095 2.441 2.441s-1.095 2.441-2.441 2.441c-1.346 0-2.441-1.095-2.441-2.441S22.324.935 23.67.935zM28.672 11.947a.467.467 0 0 0-.467.467v6.395a.302.302 0 0 1-.302.302h-1.14v-8.249a.467.467 0 1 0-.934 0v19.805a.302.302 0 0 1-.302.302h-1.086a.302.302 0 0 1-.302-.302v-7.435a.467.467 0 1 0-.934 0v7.435a.302.302 0 0 1-.302.302h-1.086a.302.302 0 0 1-.302-.302V10.862a.467.467 0 1 0-.934 0v8.249h-1.14a.302.302 0 0 1-.302-.301v-7.949a2.787 2.787 0 0 1 2.784-2.784h3.5a2.787 2.787 0 0 1 2.784 2.784.467.467 0 1 0 .934 0 3.722 3.722 0 0 0-3.718-3.718h-3.501a3.722 3.722 0 0 0-3.718 3.718v7.95c0 .682.555 1.236 1.236 1.236h1.14v10.621c0 .682.555 1.236 1.236 1.236h1.086c.291 0 .558-.102.769-.27.211.169.478.27.769.27h1.086c.682 0 1.236-.555 1.236-1.236V20.047h1.14c.682 0 1.236-.555 1.236-1.237v-6.395a.467.467 0 0 0-.467-.467zM4.859 9.608c1.861 0 3.376-1.514 3.376-3.376S6.721 2.856 4.859 2.856c-1.861 0-3.375 1.514-3.375 3.376s1.514 3.376 3.375 3.376zm0-5.816c1.346 0 2.441 1.095 2.441 2.441S6.205 8.674 4.859 8.674c-1.346 0-2.441-1.095-2.441-2.441s1.095-2.441 2.441-2.441zM6.396 10.047H3.322A3.325 3.325 0 0 0 0 13.369v6.98c0 .63.513 1.142 1.143 1.142h.014l-.324 2.944a.465.465 0 0 0 .464.518h.789v5.806c0 .63.513 1.143 1.143 1.143h.954c.253 0 .486-.084.675-.223.189.14.423.223.675.223h.954c.63 0 1.143-.513 1.143-1.143v-2.581a.467.467 0 1 0-.934 0v2.581a.208.208 0 0 1-.208.208h-.954a.208.208 0 0 1-.208-.208v-4.992a.467.467 0 1 0-.934 0v4.992a.208.208 0 0 1-.208.208H3.23a.208.208 0 0 1-.208-.208v-5.806h3.674v1.73a.467.467 0 1 0 .934 0v-1.73h.789a.467.467 0 0 0 .465-.518l-.323-2.944h.014c.63 0 1.143-.512 1.143-1.143v-6.98a3.325 3.325 0 0 0-3.322-3.322zm2.387 10.301a.208.208 0 0 1-.208.208h-.117l-.856-7.786a.468.468 0 0 0-.929.103L7.898 24.02H1.819l1.225-11.147a.468.468 0 0 0-.929-.102l-.856 7.786h-.117a.208.208 0 0 1-.208-.208v-6.98a2.39 2.39 0 0 1 2.387-2.387h3.074a2.39 2.39 0 0 1 2.387 2.387v6.98z"/><path fill="#7bb83e" style="fill:var(--color1,#7bb83e)" d="M18.177 20.236a1.248 1.248 0 0 0-.874.395l-1.743 1.856h-1.804l-1.743-1.856c-.473-.503-1.267-.528-1.771-.056s-.528 1.267-.056 1.771l2.021 2.152v6.184c0 .673.548 1.221 1.221 1.221h2.459c.673 0 1.221-.548 1.221-1.221v-2.565a.467.467 0 1 0-.934 0v2.565a.288.288 0 0 1-.287.287h-.784v-3.898a.467.467 0 1 0-.934 0v3.898h-.74a.288.288 0 0 1-.287-.287v-6.369a.465.465 0 0 0-.127-.32l-2.147-2.287a.319.319 0 0 1 .464-.436l1.881 2.003a.467.467 0 0 0 .341.147h2.209a.47.47 0 0 0 .341-.147l1.881-2.003a.318.318 0 1 1 .463.436L16.3 23.993a.47.47 0 0 0-.127.32v2.247a.467.467 0 1 0 .934 0v-2.062l2.021-2.152a1.254 1.254 0 0 0-.953-2.11z"/></symbol><symbol id="icon-logo-header" viewBox="0 0 60 32"><path fill="#e7a24f" style="fill:var(--color3,#e7a24f)" d="M35.454 6.385a.884.884 0 1 1 1.73-.363.884.884 0 0 1-1.73.363zm-1.365 3.697 3.364-1.647c.216-.106.884-.639 1.108-1.356s.287-2.008-.793-2.779c-1.08-.77-2.5-.409-3.067.18s-.956 1.372-.823 2.941c.132 1.569.21 2.66.21 2.66zM36.271 2.497a.69.69 0 0 0 .361.667.688.688 0 0 0 .976-.401.685.685 0 1 0-1.338-.266zM37.948 3.144a.495.495 0 0 0-.026.552.5.5 0 0 0 .909-.129.496.496 0 0 0-.737-.553.495.495 0 0 0-.146.131zM38.931 4.191a.378.378 0 1 0 .632.229.376.376 0 0 0-.088-.198.383.383 0 0 0-.544-.029zM39.503 5.212a.331.331 0 0 0-.351.368c.008.064.035.125.077.175s.099.085.161.102a.327.327 0 0 0 .416-.292.333.333 0 0 0-.304-.353zM39.423 6.275a.218.218 0 0 0-.242 0 .214.214 0 0 0-.089.225.214.214 0 0 0 .177.166.215.215 0 0 0 .22-.102.21.21 0 0 0-.064-.289zM29.116 5.749c.249-1.554-.079-2.365-.601-2.994s-1.911-1.095-3.045-.409-1.168 1.979-.998 2.71c.17.731.796 1.314 1.005 1.435l3.231 1.896s.159-1.083.408-2.637v-.001zm-1.493-1.152a.883.883 0 0 1-1.264.52.894.894 0 0 1-.464-.866.88.88 0 0 1 .621-.76.886.886 0 0 1 1.106 1.107zM26.439 1.39a.696.696 0 0 0 .658-.731.684.684 0 0 0-.45-.617.687.687 0 0 0-.923.671.692.692 0 0 0 .714.675zM25.237 1.878a.509.509 0 0 0-.455-.903.506.506 0 0 0-.239.75.503.503 0 0 0 .695.152zM24.33 2.693a.392.392 0 0 0-.04-.611.398.398 0 0 0-.44-.009.396.396 0 0 0-.172.405.395.395 0 0 0 .108.203.384.384 0 0 0 .544.011zM24.002 3.454a.33.33 0 0 0-.203-.304.33.33 0 1 0 .204.303zM23.95 4.293a.205.205 0 0 0-.2-.1c-.039.005-.076.021-.107.046s-.053.059-.064.097a.2.2 0 0 0 .064.213.2.2 0 0 0 .323-.097.21.21 0 0 0-.016-.159h.001z"/><path fill="#565f64" style="fill:var(--color4,#565f64)" d="M27.579.823c2.348-.354 3.278.515 3.278.515 1.321 1.151 1.134 2.699 1.134 2.699-.641.221-2.109.681-2.109.681.011.069.011.261.011.261l2.087-.675c-.051 1.611-.75 3.43-.75 3.43-.05-.017-.225-.019-.225-.019-.522-.003-.632.446-.635.627 0 .114.024.227.071.332-1.038.768-2.444 1.242-2.903 1.429s-.607.454-.607.72.323 1.228 2.765 2.243 3.864 1.137 3.864 1.235.171.549.655.549c.483 0 .641-.368.641-.635s-.162-.647-.638-.649-.641.434-.641.434c-.59-.091-1.055-.137-3.38-1.009s-3-1.887-3.011-2.195c-.012-.309.539-.482.539-.482 1.599-.567 2.869-1.463 2.869-1.463s.069.13.412.13c.343 0 .581-.351.581-.351l.031.01c.539.181 1.996.607 1.996.607l-.005-.261a27.909 27.909 0 0 1-1.957-.578c.034-.318-.227-.564-.227-.564.771-1.871.794-3.629.794-3.629 1.497-.533 3.232-1.157 3.232-1.157l-.103-.249c-1.225.51-3.102 1.1-3.102 1.1-.011-.743-.153-1.803-1.219-2.767S27.585.541 27.585.541l-.006.283zm3.029 7.516c.001-.078.025-.154.07-.219s.107-.114.179-.144a.398.398 0 0 1 .538.293.395.395 0 0 1-.672.352.404.404 0 0 1-.115-.283zm3.192 5.872a.413.413 0 0 1 .246-.393.412.412 0 0 1 .552.533.418.418 0 0 1-.673.145.406.406 0 0 1-.124-.285zM39.113 9.908c-1.179.057-3.327-.394-3.327-.394l-.323.159c1.049.337 3.326.515 3.487.485 1.974-.125 2.761-.493 2.807-1.741S40.43 5.451 40.43 5.451l-.215.181c.465.556 1.213 1.678 1.293 2.835s-1.213 1.383-2.393 1.441h-.001zM21.489 5.087c.006-.471.523-1.701 1.055-2.109l-.193-.187s-1.179 1.326-1.088 2.404 1.269 1.269 3.317 1.1l-.176-.238s-1.201.159-1.894.006-1.027-.505-1.021-.976zM21.595 16.918v2.964h.587v-1.948l1.271 1.948h.635v-2.964h-.587v1.986l-1.291-1.986h-.615z"/><path fill="#e7a24f" style="fill:var(--color3,#e7a24f)" d="M19.884 18.404c0-.483-.139-.861-.416-1.133s-.648-.407-1.111-.407a1.82 1.82 0 0 0-.677.118 1.234 1.234 0 0 0-.405.268 1.4 1.4 0 0 0-.292.407c-.096.206-.144.46-.144.761 0 .472.138.843.413 1.113s.647.405 1.114.404c.461 0 .829-.135 1.105-.406s.413-.646.413-1.125v-.001zm-.89-.775c.157.167.236.42.236.761 0 .344-.081.602-.243.775a.88.88 0 0 1-.963.19.894.894 0 0 1-.286-.192c-.164-.174-.246-.429-.247-.764 0-.341.08-.597.24-.767s.371-.255.632-.254c.262 0 .472.084.63.251h.001zM15.713 19.882v-2.463h.925v-.501h-2.489v.501h.929v2.463h.635zM13.685 19.497a.882.882 0 0 0 .025-.949.86.86 0 0 0-.346-.301c-.147-.073-.374-.145-.681-.213s-.501-.135-.58-.2a.22.22 0 0 1-.094-.18c-.001-.037.008-.073.026-.106s.043-.06.074-.079c.102-.07.244-.105.427-.105.177 0 .309.034.398.101s.146.177.173.33l.635-.021c-.01-.275-.114-.495-.312-.66s-.493-.247-.885-.249c-.21-.005-.42.031-.617.105a.848.848 0 0 0-.391.301.754.754 0 0 0 .154 1.021c.137.116.374.215.712.294.263.062.431.105.505.13a.52.52 0 0 1 .227.128c.043.05.066.114.065.179 0 .109-.052.204-.155.286s-.257.122-.461.122c-.192 0-.345-.046-.458-.137s-.188-.236-.225-.43l-.616.058c.042.33.169.582.381.755s.516.259.913.259c.272 0 .5-.036.683-.108a.88.88 0 0 0 .423-.331zM9.163 19.381v-.803h1.569v-.501H9.163v-.658h1.687v-.501H8.528v2.964h2.383v-.501H9.163zM7.857 19.882v-2.964H7.27v1.986l-1.291-1.986h-.615v2.964h.587v-1.948l1.271 1.948h.634zM4.759 18.049v-.447h-.291l.169-.787h-.5l-.164.787h-.46l.17-.787H3.2l-.17.787h-.614v.447h.518l-.129.596h-.389v.447h.293l-.17.787h.483l.17-.787h.472l-.164.787h.482l.169-.787h.611v-.447h-.516l.128-.596h.387zm-1.343 0h.464l-.124.596h-.468l.127-.596h.002zM20.356 16.918v2.964h.635v-2.964h-.635z"/><path fill="#565f64" style="fill:var(--color4,#565f64)" d="m25.657 16.918-1.22 2.964h.672l.261-.675h1.259l.271.675h.684l-1.257-2.964h-.67zm-.093 1.788.423-1.097.436 1.097h-.859z"/><path fill="#43a2d9" style="fill:var(--color5,#43a2d9)" d="m29.984 16.918-.556 2.021-.562-2.021h-.952v2.964h.587l.002-2.333.616 2.333h.61l.618-2.333.002 2.333h.587v-2.964h-.953zM31.573 16.918v2.964h2.384v-.501h-1.748v-.803h1.568v-.501h-1.568v-.658h1.687v-.501h-2.322zM34.735 18.291c.137.116.374.215.712.294.263.062.431.105.505.13a.52.52 0 0 1 .227.128c.043.05.066.114.065.179 0 .109-.052.204-.155.286s-.256.122-.459.122c-.192 0-.345-.046-.458-.137s-.188-.236-.225-.43l-.618.058c.042.33.169.582.381.755s.516.259.913.259c.272 0 .5-.036.683-.108a.88.88 0 0 0 .448-1.28.86.86 0 0 0-.346-.301c-.147-.073-.374-.145-.681-.213s-.501-.135-.58-.2a.22.22 0 0 1-.094-.181c-.001-.037.008-.073.026-.106s.043-.06.074-.079c.103-.072.246-.107.429-.107.177 0 .309.034.398.101s.146.177.173.33l.635-.021c-.01-.275-.114-.495-.313-.66s-.493-.247-.886-.247c-.21-.005-.419.03-.615.104a.843.843 0 0 0-.391.301.754.754 0 0 0 .153 1.023v.001zM38.123 17.419v2.463h.635v-2.463h.924v-.501h-2.489v.501h.929zM40.094 16.918v2.964h2.384v-.501H40.73v-.803h1.569v-.501H40.73v-.658h1.687v-.501h-2.322z"/><path fill="#565f64" style="fill:var(--color4,#565f64)" d="M44.465 19.927v-3.025h.611v1.191h1.197v-1.191h.611v3.025h-.611v-1.323h-1.197v1.323h-.611zm2.928-1.494c0-.308.046-.567.138-.776.069-.154.162-.292.281-.415.12-.122.25-.213.392-.272.188-.08.406-.12.652-.12.446 0 .802.138 1.069.415.268.277.402.661.402 1.154 0 .488-.133.871-.398 1.147-.266.275-.62.413-1.065.413-.45 0-.808-.137-1.073-.411-.265-.275-.398-.653-.398-1.135zm.629-.02c0 .343.079.603.237.78.158.176.359.264.603.264s.443-.087.598-.262c.157-.176.235-.44.235-.79 0-.347-.076-.605-.229-.776-.151-.171-.353-.256-.605-.256s-.455.087-.609.26c-.154.172-.231.432-.231.78zm2.78-1.511h.611v1.639c0 .26.008.429.023.506a.491.491 0 0 0 .186.299.661.661 0 0 0 .404.111c.173 0 .304-.035.392-.105.088-.072.141-.159.159-.262s.027-.274.027-.514v-1.674h.611v1.589c0 .363-.017.62-.05.77a.84.84 0 0 1-.539.628 1.558 1.558 0 0 1-.582.091c-.289 0-.508-.033-.658-.099a.95.95 0 0 1-.353-.26.827.827 0 0 1-.171-.336c-.04-.173-.06-.429-.06-.768v-1.614zm2.904 2.041.594-.058c.036.2.108.346.217.44.11.094.258.14.444.14.197 0 .345-.041.444-.124a.376.376 0 0 0 .151-.293.268.268 0 0 0-.064-.182.483.483 0 0 0-.219-.132 7.36 7.36 0 0 0-.489-.132c-.327-.081-.557-.181-.689-.299a.786.786 0 0 1-.279-.609c0-.154.043-.298.13-.431a.83.83 0 0 1 .378-.308c.165-.07.364-.105.596-.105.38 0 .665.083.856.25a.878.878 0 0 1 .303.667l-.611.027c-.026-.155-.083-.267-.169-.334-.085-.069-.214-.103-.386-.103-.177 0-.316.036-.417.109a.22.22 0 0 0-.097.188c0 .072.03.133.091.184.077.065.264.132.561.202s.517.143.658.219a.823.823 0 0 1 .334.308.89.89 0 0 1 .122.481.893.893 0 0 1-.553.825 1.728 1.728 0 0 1-.658.109c-.383 0-.676-.088-.881-.264-.205-.177-.327-.435-.367-.774zm2.973.984v-3.025h2.243v.512H57.29v.671h1.519v.51H57.29v.823h1.69v.51h-2.301z"/></symbol><symbol id="icon-lounge" viewBox="0 0 38 32"><path fill="#7bb83e" style="fill:var(--color1,#7bb83e)" d="M24.509.002c-.316 0-.625.097-.888.28s-.468.442-.589.746c-.121.304-.153.638-.091.96s.214.619.438.851c.224.232.508.391.819.455s.631.031.924-.095.542-.339.717-.612c.176-.273.269-.595.269-.923 0-.441-.168-.864-.468-1.175s-.706-.487-1.13-.487zm0 2.216c-.105 0-.208-.032-.296-.093s-.156-.147-.196-.248a.573.573 0 0 1 .116-.604c.074-.077.169-.13.273-.152s.21-.01.308.032c.097.042.18.113.239.204a.566.566 0 0 1 .05.52.533.533 0 0 1-.492.342v-.001zM19.713 2.772c-.527 0-1.042.163-1.48.467s-.78.737-.981 1.243-.254 1.063-.151 1.601c.103.537.357 1.031.729 1.418s.848.651 1.365.758c.517.107 1.053.052 1.54-.158s.903-.565 1.196-1.021a2.862 2.862 0 0 0 .246-2.599 2.784 2.784 0 0 0-.578-.899c-.247-.257-.541-.461-.864-.6s-.67-.211-1.02-.211zm0 4.433c-.316 0-.625-.098-.888-.28s-.468-.442-.589-.746c-.121-.304-.153-.638-.091-.96s.214-.619.438-.851c.224-.232.508-.391.819-.455s.631-.031.924.095.542.339.717.612c.176.273.269.595.269.923 0 .441-.169.863-.469 1.174s-.706.486-1.13.486v.002zM21.992 17.798l1.009-.357 3.446 10.538-1.009.357-3.446-10.538zM19.265 18.762l1.009-.357 3.446 10.532-1.009.357-3.446-10.532zM24.718 16.834l1.009-.357 3.446 10.532-1.007.357-3.447-10.532z"/><path fill="#7bb83e" style="fill:var(--color1,#7bb83e)" d="m34.861 20.477-2.518-7.698c-.127-.388-.326-.746-.586-1.054s-.576-.56-.929-.741-.738-.288-1.131-.315a2.904 2.904 0 0 0-1.161.159l-1.446.512-.093-.286c-.222-.683-.619-1.291-1.148-1.757s-1.17-.775-1.855-.891c-.685-.117-1.387-.037-2.031.23s-1.207.711-1.627 1.285c-.46-.036-.921.041-1.348.224s-.806.467-1.108.829a1.276 1.276 0 0 0-.1-.031l-.346.02-.104.043c-.045.019-1.085.74-1.554 1.121-.159.127-.352.458-.456.632a2.584 2.584 0 0 0-.3.724l-.018.166a2.341 2.341 0 0 0 0 .488c.098.974.454 2.273.454 2.273l3.618 11.072c.166.439.244.684.366.993.227.574.31.978.176 1.573-.146.648.038 1.607.716 1.821h.007c.238.056.486.042.716-.041l10.907-3.859c.298-.102.553-.309.721-.585a1.446 1.446 0 0 0-.217-1.776 1.332 1.332 0 0 0-.839-.38l-.089-.273 1.443-.511c.374-.132.72-.339 1.016-.61s.54-.6.714-.968c.175-.368.278-.769.303-1.179s-.027-.821-.154-1.21zm-8.7-8.539.187.572-3.667 1.297-.189-.572 3.668-1.297zm-8.867.422c.224-.079.461-.114.698-.104.095.005.19-.018.274-.064s.154-.116.204-.201c.204-.351.507-.629.868-.796s.762-.214 1.15-.136a.518.518 0 0 0 .552-.248 2.744 2.744 0 0 1 1.442-1.188c.605-.213 1.263-.202 1.861.033s1.099.677 1.418 1.253l-4.12 1.458c-.134.048-.243.148-.305.28s-.071.284-.026.423l.796 2.43c.056.182.041.38-.041.551s-.227.301-.401.363c-.174.062-.365.049-.53-.034s-.293-.23-.356-.41l-.267-.81c-.041-.141-.134-.258-.259-.328s-.271-.084-.406-.041c-.135.043-.249.14-.315.269s-.081.282-.04.422c0 .012.007.023.011.035a.75.75 0 0 1-.202.783.677.677 0 0 1-.989-.068.744.744 0 0 1-.137-.246l-.533-1.621c-.046-.139-.142-.253-.269-.318s-.273-.075-.407-.028l-.974.344c-.021-.435.095-.866.33-1.227s.577-.633.974-.774zm-1.035 3.082.549-.194.187.571-.55.195-.186-.572zm15.544 11.092c.025.076.02.158-.014.23s-.093.127-.166.152l-10.907 3.859a.285.285 0 0 1-.222-.014.301.301 0 0 1-.162-.291.3.3 0 0 1 .196-.267.527.527 0 0 0 .306-.28.577.577 0 0 0 .027-.423l-4.073-12.441.637-.224c.154.219.353.4.583.529a1.709 1.709 0 0 0 2.142-.379c.276.308.645.508 1.045.567s.809-.026 1.156-.242.613-.549.752-.944a1.9 1.9 0 0 0 .014-1.226l-.094-.286 3.667-1.298 4.069 12.436c.046.139.142.254.269.319s.273.075.407.028c.036-.013.075-.018.113-.015s.075.014.11.031.065.043.09.073c.025.03.044.065.056.103v.003zM27.964 14.01l1.054-.373a.694.694 0 0 1 .752.209c.06.072.107.156.137.246l2.254 6.886c.059.183.047.384-.035.557s-.227.306-.403.368l-1.054.372-2.705-8.266zm4.679 9.377-1.443.511-.189-.572 1.056-.372c.443-.158.808-.492 1.015-.929s.239-.942.088-1.403l-2.254-6.886c-.151-.462-.472-.843-.893-1.059s-.907-.25-1.352-.093l-1.054.372-.186-.571 1.45-.504c.486-.172 1.018-.136 1.479.1s.813.652.978 1.158l2.517 7.698c.164.506.128 1.058-.099 1.537s-.628.843-1.114 1.015zM12.478 7.847c.071 0 .141.014.206.043a.555.555 0 0 1 .333.517v.828c.199.048.402.073.606.073h.654c.204 0 .407-.025.606-.073v-.828a.576.576 0 0 1 .15-.41.54.54 0 0 1 .388-.172.516.516 0 0 1 .388.172c.05.054.09.119.115.189s.038.146.035.221v.281c.312-.261.564-.592.738-.967s.263-.787.263-1.204V5.168h-1.078v1.349c0 .443-.17.867-.471 1.181s-.71.489-1.136.49h-.654c-.426 0-.834-.177-1.136-.49s-.471-.738-.471-1.181V5.168h-1.076v1.349c0 .417.09.828.263 1.204s.425.706.738.967v-.281c0-.148.057-.291.158-.396s.238-.164.381-.164z"/><path fill="#7bb83e" style="fill:var(--color1,#7bb83e)" d="M14.812 11.965c.066-.096.16-.168.268-.205s.224-.038.333-.002c.11.037.219.08.325.129l.22-.228V8.408a.576.576 0 0 0-.15-.41.54.54 0 0 0-.388-.172.516.516 0 0 0-.388.172.573.573 0 0 0-.15.41v3.19c.001.126-.023.251-.068.368zM12.454 11.819c.132-.045.275-.036.4.026s.223.171.273.306c.05.135.047.284-.006.417s-.154.239-.281.297a1.936 1.936 0 0 0-.341.177 1.951 1.951 0 0 0 2.562.297c.048-.156.111-.307.187-.451-.053-.022-.106-.044-.159-.062-.136-.045-.249-.145-.315-.277s-.078-.285-.035-.427l.006-.015c-.107.179-.267.318-.456.394s-.397.086-.592.029c-.195-.058-.367-.18-.489-.348s-.188-.373-.189-.584V8.409a.576.576 0 0 0-.15-.41.54.54 0 0 0-.388-.172.516.516 0 0 0-.388.172.573.573 0 0 0-.15.41v2.897l.498.517.014-.003zM15.218 5.168l-2.462-.014c-.265-.002-.523-.089-.739-.248s-.381-.383-.471-.642l-.075-.217H7.62c-.143 0-.28.059-.381.164a.573.573 0 0 0 0 .792.529.529 0 0 0 .381.164h7.598zM16.427 4.313c-.075.247-.223.463-.423.616s-.442.237-.691.239h1.762c.052-.399.188-.782.398-1.121h-.963l-.082.266z"/><path fill="#7bb83e" style="fill:var(--color1,#7bb83e)" d="M11.545 4.264c.09.259.255.483.471.642s.474.245.739.248l2.556.014c.249-.002.491-.085.691-.239s.349-.369.423-.616l.08-.266.637-2.075a1.244 1.244 0 0 0-.168-1.07 1.167 1.167 0 0 0-.408-.361 1.117 1.117 0 0 0-.521-.13h-4.196c-.185 0-.367.046-.531.135s-.305.217-.411.374c-.106.157-.175.339-.199.529s-.005.384.057.565l.702 2.034.076.217zm.246-2.7c.007-.01.016-.019.026-.025s.023-.009.035-.008h4.196c.012 0 .023.003.034.009s.019.014.026.023c.007.01.012.021.013.033s.001.024-.002.036l-.716 2.341c-.006.021-.018.039-.035.052s-.036.021-.057.022h-.228l-2.318-.013a.217.217 0 0 1-.203-.149l-.78-2.251c-.004-.012-.006-.024-.004-.036s.006-.024.014-.034zM12.499 13.042c.108-.07.222-.13.341-.177.127-.058.228-.164.281-.297s.056-.282.006-.417-.147-.244-.272-.306-.269-.071-.4-.026l-.017.007.248.257a.574.574 0 0 1-.011.781.528.528 0 0 1-.751.012l-.426-.443c-.25.236-.462.513-.627.819l.566.588a.57.57 0 0 1 .109.627h.036c.048-.292.154-.569.312-.815s.364-.454.605-.612zM10.655 14.612l-.159-.166c-.013.12-.02.24-.02.36v.22a.57.57 0 0 1 .179-.415zM15.45 12.187l.289-.3a3.138 3.138 0 0 0-.325-.129c-.133-.044-.278-.033-.404.032s-.221.179-.267.316l-.006.015c-.043.142-.031.295.035.427s.179.231.315.277c.055.018.108.04.159.062l.071-.128a.574.574 0 0 1 .133-.571z"/><path fill="#7bb83e" style="fill:var(--color1,#7bb83e)" d="M11.015 14.467h.529c.045-.104.059-.219.04-.331s-.071-.215-.149-.296l-2.527-2.627c-.004-.004-.006-.008-.008-.013a.04.04 0 0 1 0-.03l.008-.013.653-.679.012-.009a.04.04 0 0 1 .03 0 .027.027 0 0 1 .012.009l2.306 2.398a.523.523 0 0 0 .751-.012c.099-.103.156-.242.158-.388s-.05-.287-.147-.393l-2.306-2.397a1.104 1.104 0 0 0-.789-.34 1.08 1.08 0 0 0-.789.34l-.653.679a1.166 1.166 0 0 0-.327.82c0 .152.029.303.085.444.056.141.138.269.242.376l2.509 2.609a.521.521 0 0 1 .358-.147zM18.481 9.527l.174-.181c-.148-.002-.296.028-.433.086s-.262.145-.367.254l-2.407 2.502a.566.566 0 0 0-.13.571c.105-.175.299-.505.455-.632a26.989 26.989 0 0 1 1.554-1.121l.104-.043.346-.02c.034.009.067.02.1.031.194-.232.42-.433.67-.595a.56.56 0 0 1-.226-.409.57.57 0 0 1 .157-.442l.002-.002zM19.585 9.964l.1-.017-.042-.044-.058.061z"/><path fill="#7bb83e" style="fill:var(--color1,#7bb83e)" d="M19.713 8.312h-.061l-1.17 1.217a.556.556 0 0 0-.157.442c.007.081.03.16.069.231s.093.132.157.178a2.887 2.887 0 0 1 1.035-.414l3.892-4.047.012-.009a.04.04 0 0 1 .03 0 .027.027 0 0 1 .012.009l.175.179c.004.004.006.008.008.013a.04.04 0 0 1 0 .03l-.008.013-3.616 3.759c.08 0 .163 0 .245.007.329-.448.746-.818 1.222-1.086s1.003-.428 1.543-.469l1.322-1.377a.525.525 0 0 1-.751-.013c-.099-.103-.155-.242-.157-.388s.051-.287.147-.392l.829-.862-.026-.03-.174-.18c-.009-.01-.019-.018-.029-.027l-.826.863a.529.529 0 0 1-.764.001.579.579 0 0 1-.001-.794l-.298.31v.064c0 .734-.28 1.438-.779 1.958s-1.176.812-1.882.813z"/><path fill="#7bb83e" style="fill:var(--color1,#7bb83e)" d="M26.936 4.381c.028-.029.055-.06.08-.092l-.061.049a.524.524 0 0 1-.697-.026.575.575 0 0 1-.088-.719l-2.505 2.605a.573.573 0 0 0 .022.767.527.527 0 0 0 .738.026l2.512-2.61zM26.175 3.532a.041.041 0 0 1 .009.041.55.55 0 0 1 .108-.118c.255-.207.509-.398.762-.57a1.25 1.25 0 0 0-.116-.145l-.036-.037c-.25.172-.501.359-.752.563a.568.568 0 0 1-.148.083l.174.184zM22.672 5.962a.529.529 0 0 0 .762 0l2.491-2.589c-.115.025-.234.01-.34-.042s-.192-.139-.246-.248c-.25.159-.537.243-.83.243h-.06l-1.777 1.842a.563.563 0 0 0-.158.397.583.583 0 0 0 .158.397zM17.424 16.835l-.22.078c.127.035.251.072.374.111a1.65 1.65 0 0 1-.154-.189zM5.341 23.041c0-2.731 2.335-5.204 5.812-6.142.115-.031.217-.102.29-.2s.112-.218.112-.343v-.769h3.695c-.08-.338-.159-.739-.212-1.12h-4.023c-.143 0-.28.059-.381.164s-.158.247-.158.396v.904c-3.734 1.152-6.21 3.968-6.21 7.109 0 1.685.699 3.293 1.99 4.613l1.225-.353c-1.383-1.189-2.142-2.693-2.142-4.259zM19.372 28.297c-1.471.805-3.283 1.278-5.22 1.278a11.396 11.396 0 0 1-3.618-.579l-1.716.497c1.592.788 3.429 1.204 5.334 1.204 1.979 0 3.901-.459 5.524-1.302a2.926 2.926 0 0 0-.239-.921l-.065-.176z"/><path fill="#7bb83e" style="fill:var(--color1,#7bb83e)" d="M37.19 6.176c-.462-2.286-1.532-4.061-3.016-4.996-2.443-1.541-5.292-1.271-8.087.742-.036.238-.122.465-.251.665s-.299.369-.497.494c.037.073.088.137.151.187a.526.526 0 0 0 .659-.004c.25-.204.501-.391.752-.563 2.36-1.617 4.719-1.821 6.715-.565 1.226.773 2.122 2.289 2.521 4.268.533 2.642.091 5.604-1.101 7.367a22.658 22.658 0 0 1-1.661 2.159l.398 1.207a24.229 24.229 0 0 0 2.15-2.723c1.347-1.996 1.859-5.307 1.268-8.238zM15.766 27.49a53.387 53.387 0 0 0 2.997-.958l-.347-1.06c-.952.335-1.931.649-2.938.939-4.508 1.3-7.763 2.236-9.683 2.784l-1.07.305.094.422c.055.25.023.512-.092.738l1.353-.386 2.74-.785 1.716-.497 5.23-1.504zM30.095 20.524a31.869 31.869 0 0 0 1.509-1.249l-.374-1.146c-.478.435-.978.86-1.5 1.275l.365 1.12z"/><path fill="#7bb83e" style="fill:var(--color1,#7bb83e)" d="M35.91 6.458c-.386-1.914-1.243-3.374-2.415-4.112-1.938-1.225-4.151-1.034-6.445.538-.253.174-.507.364-.762.57a.579.579 0 0 0-.108.118l-.013.021a.575.575 0 0 0 .088.719.526.526 0 0 0 .697.026l.061-.049c1.518-1.218 3.758-2.352 5.921-.987.913.579 1.592 1.778 1.919 3.385.456 2.261.09 4.855-.892 6.309-.314.466-.671.953-1.076 1.454l.402 1.229a22.915 22.915 0 0 0 1.556-2.04c1.141-1.688 1.579-4.641 1.066-7.18zM4.621 29.017l.056.248c1.03-.293 3.742-1.07 10.74-3.087a52.65 52.65 0 0 0 2.926-.934l-.347-1.06c-.91.32-1.866.625-2.866.915A7646.92 7646.92 0 0 1 7.487 27.3l-1.231.353c-1.365.392-1.966.562-2.229.637l.076.034c.13.069.244.167.334.287s.153.259.185.407zM29.656 19.179a28.117 28.117 0 0 0 1.497-1.285l-.377-1.153c-.457.436-.952.876-1.486 1.318l.367 1.121z"/><path fill="#7bb83e" style="fill:var(--color1,#7bb83e)" d="m4.822 29.922-.094-.422-.049-.234-.056-.248c-.033-.148-.097-.287-.187-.407a1.004 1.004 0 0 0-.412-.32.953.953 0 0 0-.77.009l-1.413.637-.51-.122a1.057 1.057 0 0 0-.984.27c-.127.119-.224.268-.282.434a1.15 1.15 0 0 0-.038.624l.2.898a1.083 1.083 0 0 0 .348.597 1.032 1.032 0 0 0 .691.259c.246 0 .485-.085.679-.243l.378-.31 1.56-.108a1.025 1.025 0 0 0 .76-.432 1.104 1.104 0 0 0 .178-.881h.001zm-2.737.315a.527.527 0 0 0-.299.119l-.51.414-.193-.871h.006l.683.166c.112.027.23.016.336-.032l1.488-.671.168.756-1.679.12zM25.338 3.083c.328-.207.574-.53.692-.909s.101-.791-.048-1.158c-.149-.368-.421-.667-.765-.844s-.738-.219-1.109-.118c-.371.1-.696.336-.914.664s-.315.727-.274 1.124.219.765.5 1.036c.281.272.646.43 1.03.445h.06c.292.001.579-.082.83-.24zm-1.362-1.419c0-.11.031-.217.09-.308s.142-.162.239-.204a.516.516 0 0 1 .581.12.562.562 0 0 1 .146.284c.02.107.01.219-.03.32s-.109.188-.196.249a.519.519 0 0 1-.673-.069.566.566 0 0 1-.156-.392zM17.049 5.542c0 .723.272 1.418.759 1.936s1.148.816 1.844.833h.061c.706 0 1.384-.292 1.884-.811s.781-1.223.781-1.958v-.064c-.017-.728-.309-1.42-.814-1.926s-1.18-.785-1.88-.776c-.701.008-1.37.303-1.862.821s-.77 1.216-.771 1.945h-.002zm2.665-1.662c.278 0 .55.076.791.219.035.021.069.041.103.065.316.222.545.555.645.937s.065.79-.1 1.148c-.164.358-.447.642-.796.802s-.742.184-1.106.068-.677-.364-.881-.699a1.706 1.706 0 0 1 .305-2.137 1.56 1.56 0 0 1 1.038-.403zM24.647 22.477 23 17.444l-1.009.357.281.858 3.166 9.674 1.008-.357-1.376-4.206-.352-1.073-.072-.22zM22.452 25.058l-.349-1.064-.072-.223-.348-1.064-1.408-4.302-1.009.357 3.446 10.531 1.009-.357-1.269-3.879zM27.193 20.961l-.357-1.089-1.111-3.394-1.009.357 1.189 3.634.354 1.082.072.22 1.831 5.596 1.008-.357-1.978-6.048z"/><path fill="#7bb83e" style="fill:var(--color1,#7bb83e)" d="m33.29 15.678-.948-2.898c-.127-.388-.326-.746-.586-1.054s-.576-.56-.929-.741-.738-.288-1.131-.315a2.887 2.887 0 0 0-1.161.16l-1.445.511-.093-.286c-.222-.683-.619-1.291-1.148-1.757s-1.17-.775-1.855-.891c-.685-.117-1.387-.037-2.031.23s-1.207.711-1.627 1.285a2.85 2.85 0 0 0-.649.024l-.1.017a2.929 2.929 0 0 0-1.705 1.011 1.276 1.276 0 0 0-.1-.031l-.346.02-.104.043c-.045.019-1.085.74-1.554 1.121-.159.127-.351.456-.455.632a2.614 2.614 0 0 0-.258.579c-.014.047-.029.094-.042.146l-.018.166a2.341 2.341 0 0 0 0 .488c.011.108.025.22.041.331.055.382.136.782.212 1.12.106.471.201.819.201.819l2.548 7.78.338 1.06.074.227.347 1.06.31.948c.134.354.211.579.299.818l.067.175c.129.291.209.602.239.921.011.219-.009.438-.061.651-.146.648.038 1.607.716 1.821h.007c.238.056.486.042.716-.041l10.907-3.859c.298-.102.553-.309.721-.585a1.446 1.446 0 0 0-.217-1.775 1.337 1.337 0 0 0-.839-.38l-.089-.273 1.443-.511c.753-.267 1.374-.835 1.725-1.577s.406-1.6.15-2.384l-1.091-3.335-.398-1.207-.08-.262zm-7.128-3.74.187.572-3.667 1.297-.189-.572 3.668-1.297zm-5.653-.876c.102.017.207.003.302-.041s.175-.116.231-.207a2.744 2.744 0 0 1 1.442-1.188c.605-.213 1.263-.202 1.861.033s1.099.677 1.418 1.253l-4.12 1.458c-.134.048-.243.148-.305.28s-.071.284-.026.423l.796 2.43c.056.182.041.38-.041.551s-.227.301-.401.363c-.174.062-.364.049-.53-.034s-.293-.23-.356-.41l-.267-.81c-.041-.141-.134-.258-.259-.328s-.271-.084-.406-.041c-.135.043-.249.14-.315.269s-.081.282-.04.422c0 .012.007.023.011.035.054.174.042.363-.031.528a.715.715 0 0 1-.423.389c-.174.058-.362.043-.525-.041s-.289-.23-.351-.408l-.488-1.484-.045-.137c-.046-.139-.142-.253-.269-.318s-.273-.075-.407-.028l-.975.344c-.021-.435.095-.865.33-1.226s.576-.633.972-.775c.224-.079.461-.114.698-.104.095.005.19-.018.274-.064s.154-.116.204-.201c.203-.349.503-.625.861-.792l.03-.013a1.859 1.859 0 0 1 1.127-.127h.023zm-4.206 4.525-.047-.145.549-.194.187.571-.55.194-.139-.426zm15.501 10.944c.025.076.02.158-.014.23s-.093.127-.166.152l-10.907 3.859a.285.285 0 0 1-.222-.014c-.034-.017-.065-.042-.09-.072a.32.32 0 0 1-.072-.219.3.3 0 0 1 .196-.267.527.527 0 0 0 .306-.28.577.577 0 0 0 .027-.423l-.221-.674-.362-1.093-.511-1.563-.347-1.06-.074-.225-.347-1.06-2.211-6.762.635-.224c.179.25.415.45.688.58s.572.187.871.165a1.725 1.725 0 0 0 1.166-.593c.276.308.645.508 1.045.567s.809-.026 1.156-.242c.347-.216.613-.549.752-.944s.145-.828.014-1.226l-.094-.286 3.667-1.298 2.501 7.644 1.569 4.789c.046.139.142.254.269.319s.273.075.407.028c.036-.013.075-.018.113-.015s.075.014.11.031.065.043.09.073c.025.03.044.065.056.103zm-.652-8.636.08.238.374 1.143.557 1.705c.059.183.047.384-.035.557s-.227.306-.403.368l-1.054.372-2.705-8.269 1.054-.372a.694.694 0 0 1 .752.209.744.744 0 0 1 .137.246l.866 2.649.377 1.154zm1.491 5.493-1.443.511-.189-.572 1.056-.373c.443-.158.808-.492 1.015-.929s.239-.942.088-1.403l-.705-2.143-.381-1.164-.08-.248-.383-1.173-.706-2.159c-.151-.462-.472-.842-.892-1.058s-.906-.25-1.351-.094l-1.054.372-.186-.571 1.45-.504c.486-.172 1.018-.136 1.479.1s.813.652.978 1.158l.74 2.263.385 1.195.08.248.385 1.178.919 2.814c.164.505.129 1.056-.097 1.534s-.625.844-1.109 1.017v.001z"/></symbol><symbol id="icon-menu" viewBox="0 0 37 32"><path fill="#fff" style="fill:var(--color2,#fff)" d="M0 0h36.571v4.571H0V0zM0 13.714h36.571v4.571H0v-4.571zM0 27.429h36.571V32H0v-4.571z"/></symbol><symbol id="icon-phone" viewBox="0 0 32 32"><path fill="none" stroke="#fff" style="stroke:var(--color2,#fff)" stroke-width="1.143" d="M31.429 16c0 8.521-6.908 15.429-15.429 15.429S.571 24.521.571 16 7.479.571 16 .571 31.429 7.479 31.429 16z"/><path fill="#fff" style="fill:var(--color2,#fff)" d="M15.712 9.136h.037a6.74 6.74 0 0 1 4.801 1.982 6.752 6.752 0 0 1 1.986 4.839.747.747 0 0 0 .742.75h.004c.41 0 .744-.332.746-.743a8.228 8.228 0 0 0-2.423-5.901 8.22 8.22 0 0 0-5.856-2.419h-.041a.746.746 0 0 0 .004 1.493zM24.813 22.248a2.826 2.826 0 0 0-.867-1.942c-1.042-1.005-1.915-1.585-2.747-1.825-1.147-.332-2.209-.03-3.158.896l-.004.004-1.01 1.002c-.627-.352-1.846-1.128-3.18-2.461l-.098-.098c-1.325-1.325-2.105-2.551-2.46-3.18l1.001-1.009.004-.004c.926-.948 1.227-2.011.896-3.158-.241-.832-.821-1.705-1.825-2.747-.513-.532-1.203-.84-1.941-.867s-1.449.231-1.999.724l-.021.019-.029.028c-1.095 1.095-1.669 2.629-1.66 4.434.015 3.067 1.701 6.575 4.51 9.383l.007.007a18.204 18.204 0 0 0 1.782 1.551.746.746 0 1 0 .908-1.184 16.6 16.6 0 0 1-1.642-1.429l-.007-.007c-2.533-2.535-4.052-5.648-4.066-8.329-.007-1.391.411-2.551 1.21-3.358l.006-.005a1.342 1.342 0 0 1 1.869.067c1.932 2.003 1.792 2.949.938 3.824l-1.383 1.393a.746.746 0 0 0-.152.829c.035.079.884 1.956 3 4.071l.098.098c2.115 2.115 3.992 2.965 4.071 3a.746.746 0 0 0 .829-.152l1.393-1.383c.875-.854 1.821-.994 3.825.938.525.506.554 1.327.067 1.869l-.005.006c-.8.792-1.948 1.21-3.324 1.21h-.034c-1.099-.006-2.373-.307-3.682-.872a.746.746 0 1 0-.591 1.371c1.513.653 2.948.987 4.265.994h.042c1.788 0 3.306-.574 4.392-1.66l.028-.029.019-.021c.494-.55.751-1.26.724-1.999z"/><path fill="#fff" style="fill:var(--color2,#fff)" d="M19.497 12.175a4.1 4.1 0 0 0-1.938-1.115.746.746 0 0 0-.398 1.438c.302.083.758.21 1.28.732.503.503.636.956.725 1.257l.011.036a.747.747 0 0 0 1.431-.423l-.01-.034c-.115-.391-.329-1.119-1.101-1.89z"/></symbol><symbol id="icon-rent" viewBox="0 0 32 32"><path fill="#fff" style="fill:var(--color2,#fff)" d="m26.097 23.797-1.277-1.931v-9.652l1.004-1.504a.407.407 0 0 0-.113-.565l-1.747-1.166V5.754a.407.407 0 0 0-.407-.407h-1.806a.407.407 0 0 0-.407.407v1.475l-5.383-3.594a.41.41 0 0 0-.453 0l-3.052 2.037a.408.408 0 0 0 .452.678l2.826-1.886 9.187 6.132-.634.949-8.327-5.559a.41.41 0 0 0-.453 0L7.18 11.545l-.633-.949 3.311-2.21a.408.408 0 0 0-.452-.678l-3.65 2.436a.408.408 0 0 0-.113.565l1.004 1.504v11.4H5.71a.407.407 0 1 0 0 .814h20.048a.406.406 0 0 0 .34-.633zm-3.94-17.636h.992v2.274l-.992-.662V6.161zm-2.163 8.409.466-.705a.408.408 0 1 0-.68-.45l-.275.416-.275-.416a.408.408 0 1 0-.68.45l.466.705-.228.345C15.524 17.725 10.6 17.62 7.46 14.6v-1.967c.388.1.78.182 1.175.248a1.223 1.223 0 1 0 2.287.598c0-.143-.025-.281-.071-.409l.073.001c.378 0 .757-.015 1.134-.046a1.223 1.223 0 1 0 2.415.265c0-.231-.064-.447-.176-.632.416-.103.826-.226 1.23-.366a1.223 1.223 0 1 0 2.05-.906c.32-.173.633-.359.939-.556a1.223 1.223 0 0 0 2.378-.565L24 12.339v8.296l-4.01-6.064zm1.862 8.097-1.592-2.408h1.592v2.408zm-1.943-3.222v-3.52l2.328 3.52h-2.328zm-5.878-1.271a.407.407 0 1 1-.815 0 .407.407 0 0 1 .815 0zm-3.502-.527a.407.407 0 1 1-.815 0 .407.407 0 0 1 .815 0zm-.423-4.167a.408.408 0 0 1-.815 0 .407.407 0 0 1 .815 0zm3.552-.19a.408.408 0 1 1-.815-.001.408.408 0 0 1 .815.001zm3.498-1.007a.407.407 0 1 1-.815 0 .407.407 0 0 1 .815 0zm2.546-2.159a.408.408 0 1 1-.001.815.408.408 0 0 1 .001-.815zm-3.973-3.308 3.602 2.404a13.21 13.21 0 0 1-11.277 2.719l7.675-5.123zM7.461 15.69a9.26 9.26 0 0 0 1.762 1.134 1.223 1.223 0 1 0 2.121.736c.375.08.757.137 1.144.171a1.223 1.223 0 1 0 2.361.443c0-.185-.042-.361-.116-.518a9.158 9.158 0 0 0 2.871-.95l-4.57 6.91H7.459v-7.925zm11.637.235v3.805l-2.569 3.885h-2.516l5.086-7.69zm-1.592 7.69 2-3.024 2 3.024h-3.999zm5.165 0v-3.52l2.328 3.52h-2.328z"/><path fill="#fff" style="fill:var(--color2,#fff)" d="M11.156 7.437a.41.41 0 0 0 .407-.407.408.408 0 1 0-.695.288.41.41 0 0 0 .288.119z"/><path fill="none" stroke="#fff" style="stroke:var(--color2,#fff)" stroke-width=".561" d="M31.356 15.965c0 8.581-6.956 15.538-15.538 15.538S.28 24.547.28 15.965C.28 7.384 7.236.427 15.818.427s15.538 6.956 15.538 15.538z"/></symbol><symbol id="icon-rent-2" viewBox="0 0 32 32"><path fill="#7bb83e" style="fill:var(--color1,#7bb83e)" d="m31.799 30.936-1.953-2.953V13.224l1.535-2.3a.623.623 0 0 0-.172-.864l-2.672-1.783V3.345a.623.623 0 0 0-.623-.623h-2.762a.623.623 0 0 0-.623.623v2.256L16.297.106a.623.623 0 0 0-.692 0l-4.667 3.116a.623.623 0 0 0 .692 1.036l4.322-2.885L30 10.751l-.969 1.451-12.734-8.5a.623.623 0 0 0-.692 0l-12.734 8.5-.969-1.451 5.063-3.379a.623.623 0 0 0-.692-1.036L.692 10.061a.623.623 0 0 0-.172.864l1.535 2.3v17.433H.622a.623.623 0 0 0 0 1.246h30.657a.624.624 0 0 0 .52-.967zM25.776 3.967h1.516v3.477l-1.516-1.012V3.967zm-3.308 12.858.713-1.078a.622.622 0 1 0-1.039-.687l-.421.636-.421-.636a.622.622 0 1 0-1.039.687l.713 1.078-.349.528c-4.991 4.298-12.521 4.137-17.322-.481v-3.008a21.25 21.25 0 0 0 1.797.38 1.871 1.871 0 0 0 1.63 2.783 1.872 1.872 0 0 0 1.761-2.495l.112.001c.578 0 1.157-.024 1.735-.071a1.871 1.871 0 0 0 1.824 2.274c1.03 0 1.869-.839 1.869-1.869 0-.353-.099-.684-.27-.966a21.27 21.27 0 0 0 1.88-.56 1.871 1.871 0 0 0 1.869 1.856 1.871 1.871 0 0 0 1.869-1.869c0-.542-.232-1.031-.602-1.373a21.14 21.14 0 0 0 1.435-.851 1.873 1.873 0 0 0 1.813 1.414 1.871 1.871 0 0 0 1.823-2.278l4.75 3.171v12.687l-6.133-9.273zm2.847 12.383-2.435-3.681h2.435v3.681zm-2.971-4.928v-5.383l3.56 5.383h-3.56zm-8.989-1.944a.624.624 0 1 1-1.247-.001.624.624 0 0 1 1.247.001zM8 21.531a.623.623 0 1 1-1.246 0 .623.623 0 0 1 1.246 0zm-.647-6.373a.624.624 0 1 1-1.247-.001.624.624 0 0 1 1.247.001zm5.432-.29a.624.624 0 1 1-1.247-.001.624.624 0 0 1 1.247.001zm5.349-1.539a.623.623 0 1 1-1.246 0 .623.623 0 0 1 1.246 0zm3.893-3.302a.624.624 0 1 1-.001 1.247.624.624 0 0 1 .001-1.247zm-6.076-5.059 5.508 3.677c-4.769 3.968-11.203 5.509-17.244 4.158l11.736-7.834zM3.302 18.538c.836.684 1.74 1.264 2.694 1.734a1.86 1.86 0 0 0-.489 1.259c0 1.031.839 1.869 1.869 1.869a1.872 1.872 0 0 0 1.864-2.002c.574.123 1.158.21 1.75.261a1.871 1.871 0 0 0 1.742 2.546 1.872 1.872 0 0 0 1.692-2.662 14.002 14.002 0 0 0 4.39-1.453l-6.988 10.567H3.301V18.539zm17.796.359v5.819l-3.929 5.941h-3.848l7.777-11.759zm-2.435 11.76 3.058-4.624 3.058 4.624h-6.115zm7.898 0v-5.383l3.56 5.383h-3.56z"/><path fill="#7bb83e" style="fill:var(--color1,#7bb83e)" d="M8.952 5.918a.625.625 0 0 0 .441-1.063.627.627 0 0 0-1.065.44.623.623 0 0 0 .624.623z"/></symbol><symbol id="icon-sport" viewBox="0 0 32 32"><path fill="#fff" style="fill:var(--color2,#fff)" d="m8.847 5.411-.008.611a.983.983 0 0 1 .966.979h.611c0-.865-.704-1.579-1.568-1.591zM7.708 5.869l.429.435a.99.99 0 0 1 .395-.238l-.182-.583c-.24.075-.462.208-.642.386zM7.234 7.001h.611c0-.158.036-.309.108-.448l-.543-.28a1.599 1.599 0 0 0-.176.728z"/><path fill="#fff" style="fill:var(--color2,#fff)" d="m10.042 11.199 2.184 2.184-1.918 1.918 2.33 2.33.432-.432-1.898-1.898 4.035-4.035.171.171h3.709v-.611h-3.456L13.565 8.76h2.888v1.079h-.213v-.57h-.611v1.181h1.436v-.862l1.942-1.5h3.907v-.611h-3.906l-1.942-1.5v-.961H15.63v1.181h.611v-.57h.213v1.079h-4.822l-.425.423a2.378 2.378 0 0 0-.694-1.815c-.93-.93-2.443-.93-3.373 0s-.93 2.443 0 3.373a2.378 2.378 0 0 0 1.816.693l-1.421 1.423H5.303v2.053h3.082l1.659-1.659zm7.022-4.449 1.338 1.033-1.338 1.033V6.75zm-4.406 6.201L9.455 9.748l.842-.842.465.465-.372.372.967.967.372-.372.404.404-.372.372.967.967.372-.372.4.4-.842.842zm-1.404-3.209.31-.31.103.103-.31.31-.103-.103zm1.371 1.371.31-.31.103.103-.31.31-.103-.103zm3.827-3.795v.831h-3.499l-.831-.831h4.33zm-4.881.313 3.203 3.203-.842.842-.4-.4.371-.371-.967-.967-.371.371-.404-.404.371-.371-.967-.967-.371.371-.465-.465.842-.842zM8.825 8.775a1.776 1.776 0 0 1 0-3.548 1.776 1.776 0 0 1 0 3.548zm-2.913 3.472v-.831h1.874l1.236-1.236.587.587-1.48 1.48H5.911z"/><path fill="#fff" style="fill:var(--color2,#fff)" d="M15.663 12.879h1.653v-.611h-1.903l-1.952 1.919-1.115 1.115 1.311 1.31.432-.432-.878-.878.681-.681 1.772-1.741zM22.193 10.104l-.605-.545-9.533 9.531.451.466 1.078.016 8.594-8.384.016-1.084zm-.624.823-8.231 8.031-.282-.004 8.521-8.52-.007.493zM25.858 21.176c-.953 0-1.418-.187-1.911-.385-.525-.211-1.067-.43-2.139-.43s-1.614.218-2.139.43c-.492.198-.958.385-1.911.385s-1.419-.187-1.911-.385c-.525-.211-1.067-.43-2.139-.43s-1.614.218-2.139.43c-.492.198-.958.385-1.911.385s-1.419-.187-1.911-.385c-.525-.211-1.067-.43-2.139-.43h-.306v5.118h20.863v-4.303h-.306zm-.305 3.691H5.913v-3.888c.753.036 1.169.203 1.606.378.525.211 1.068.43 2.139.43s1.614-.218 2.139-.43c.493-.198.958-.385 1.911-.385s1.419.187 1.911.385c.525.211 1.067.43 2.139.43s1.614-.218 2.139-.43c.492-.198.958-.385 1.911-.385s1.419.187 1.911.385c.472.19.959.386 1.834.423v3.087z"/><path fill="#fff" style="fill:var(--color2,#fff)" d="M22.268 22.206c.658.05 1.043.205 1.451.369.282.114.574.231.955.314l.131-.597a5.137 5.137 0 0 1-.858-.284c-.433-.174-.881-.355-1.633-.411l-.046.609zM6.639 22.203c.179.038.352.089.545.159l.209-.574a4.553 4.553 0 0 0-.627-.182l-.127.598zM11.568 21.925c-.493.198-.958.385-1.911.385-.361 0-.676-.027-.962-.082l-.116.6c.325.063.678.093 1.078.093 1.072 0 1.614-.218 2.139-.43.194-.078.378-.152.589-.215l-.174-.586c-.239.071-.444.154-.643.234zM7.554 22.507c.193.078.384.152.6.217l.175-.585a6.268 6.268 0 0 1-.547-.199l-.228.567zM26.164 7.477h-2.64v.611h2.64v-.611zM10.409 16.276H8.724v.611h1.685v-.611zM7.298 16.276h-.611v.611h.611v-.611zM8.316 16.276h-.611v.611h.611v-.611zM8.375 14.296H5.93v.611h2.445v-.611zM9.702 14.296h-.716v.611h.716v-.611zM24.595 19.01h-.601v.611h.601v-.611zM23.587 19.01h-.611v.611h.611v-.611zM22.568 19.01h-.611v.611h.611v-.611zM23.703 15.922h-.611v.611h.611v-.611zM20.647 15.922h-.611v.611h.611v-.611zM22.684 15.922h-.611v.611h.611v-.611zM21.665 15.922h-.611v.611h.611v-.611z"/><path fill="none" stroke="#fff" style="stroke:var(--color2,#fff)" stroke-width=".561" d="M31.355 15.818c0 8.581-6.956 15.537-15.537 15.537S.281 24.399.281 15.818 7.237.281 15.818.281s15.537 6.956 15.537 15.537z"/></symbol><symbol id="icon-sport-2" viewBox="0 0 32 32"><path fill="#7bb83e" style="fill:var(--color1,#7bb83e)" d="M30.256 18.295a12.111 12.111 0 0 0 1.562-4.678l.002-.016a12.14 12.14 0 0 0-3.115-9.637.627.627 0 0 0-.111-.119A12.219 12.219 0 0 0 23.801.703a12.135 12.135 0 0 0-4.082-.704 12.112 12.112 0 0 0-4.63.915 12.245 12.245 0 0 0-4.462 3.167.627.627 0 0 0-.105.119 12.132 12.132 0 0 0-2.911 9.337l.002.016c.09.807.26 1.589.501 2.341l-6.545 6.545a.623.623 0 0 0 .882.881l6.153-6.152c.171.38.362.751.57 1.109a.602.602 0 0 0 .071.12 12.24 12.24 0 0 0 6.971 5.455l-4.389 4.389a.623.623 0 0 0 .882.881l4.934-4.934a12.19 12.19 0 0 0 2.08.178c4.438 0 8.33-2.386 10.46-5.942a.597.597 0 0 0 .078-.131zm-5.391.025-2.217-3.412 1.179-3.628 3.531-.793 3.185 3.271a10.883 10.883 0 0 1-1.262 3.732l-4.415.829zm-8.076-3.412-2.216 3.41-4.429-.85a10.884 10.884 0 0 1-1.258-3.764l3.19-3.217 3.534.794 1.179 3.628zm-6.14-8.832.562 3.513-2.429 2.45a10.875 10.875 0 0 1 1.867-5.963zm7.277 8.299-1.101-3.387 2.881-2.093 2.881 2.094-1.101 3.387h-3.561zm12.729-2.287-2.441-2.507.432-3.71a10.874 10.874 0 0 1 2.01 6.217zm-3.11-7.537-.552 4.741-3.511.788-3.129-2.273V4.434l3.382-2.424a10.985 10.985 0 0 1 3.81 2.541zm-5.297-3.009-2.556 1.832-2.85-1.743a10.92 10.92 0 0 1 5.406-.089zm-6.918.624 3.754 2.297v3.344l-3.129 2.273-3.53-.793-.725-4.534a10.994 10.994 0 0 1 3.631-2.588zm-4.222 16.756 3.362.645 1.712 2.968a10.976 10.976 0 0 1-5.074-3.614zm6.761 4.043-2.271-3.937 2.214-3.407h3.814l2.214 3.407-2.271 3.936a10.962 10.962 0 0 1-3.7 0zm5.386-.43 1.711-2.967 3.349-.629a10.984 10.984 0 0 1-5.061 3.596z"/><path fill="#7bb83e" style="fill:var(--color1,#7bb83e)" d="M8.582 22.44.183 30.839a.623.623 0 1 0 .882.88l8.399-8.399a.623.623 0 0 0-.881-.881zM10.353 29.972a.627.627 0 0 0-.623.624.627.627 0 0 0 .623.623.625.625 0 0 0 0-1.247z"/></symbol><symbol id="icon-telegram" viewBox="0 0 32 32"><path fill="none" stroke="#fff" style="stroke:var(--color2,#fff)" stroke-width="1.143" d="M31.429 16c0 8.521-6.908 15.429-15.429 15.429S.571 24.521.571 16 7.479.571 16 .571 31.429 7.479 31.429 16z"/><path fill="#fff" style="fill:var(--color2,#fff)" d="m7.667 14.333 15.427-6.256c.716-.272 1.341.184 1.109 1.322l.001-.001-2.627 13.015c-.195.923-.716 1.147-1.445.712l-4-3.101-1.929 1.955c-.213.224-.393.414-.807.414l.284-4.282 7.413-7.044c.323-.299-.072-.467-.497-.17l-9.161 6.067-3.949-1.296c-.857-.286-.876-.902.181-1.336z"/></symbol><symbol id="icon-person" viewBox="0 0 18 18"><path d="M9 9a3 3 0 1 0 0-6 3 3 0 1 0 0 6Zm0 1.5c-2.003 0-6 1.005-6 3v.75c0 .412.337.75.75.75h10.5c.412 0 .75-.338.75-.75v-.75c0-1.995-3.998-3-6-3Z"/></symbol><symbol id="icon-phone-modal" viewBox="0 0 18 18"><path d="m13.996 11.123-1.838-.21a1.44 1.44 0 0 0-1.187.412l-1.332 1.332a10.888 10.888 0 0 1-4.769-4.77L6.21 6.55a1.44 1.44 0 0 0 .412-1.187l-.21-1.824a1.448 1.448 0 0 0-1.44-1.28H3.72c-.818 0-1.498.68-1.448 1.497.384 6.18 5.327 11.116 11.5 11.5.817.05 1.498-.63 1.498-1.448v-1.252a1.434 1.434 0 0 0-1.274-1.432Z"/></symbol><symbol id="icon-email" viewBox="0 0 18 18"><path d="M15 3H3c-.825 0-1.492.675-1.492 1.5l-.008 9c0 .825.675 1.5 1.5 1.5h12c.825 0 1.5-.675 1.5-1.5v-9c0-.825-.675-1.5-1.5-1.5Zm-.3 3.188L9.398 9.502a.759.759 0 0 1-.796 0L3.3 6.188a.637.637 0 1 1 .675-1.08L9 8.25l5.025-3.143a.637.637 0 1 1 .675 1.08Z"/></symbol></defs></svg>