<svg aria-hidden="true" style="position: absolute; width: 0; height: 0; overflow: hidden;" version="1.1" xmlns="http://www.w3.org/2000/svg" xmlns:xlink="http://www.w3.org/1999/xlink">
<defs>
<symbol id="burger-menu" viewBox="0 0 32 32">
  <path  d="M2.286 3.429h27.429v3.429h-27.429v-3.429z"></path>
  <path  d="M2.286 13.714h27.429v3.429h-27.429v-3.429z"></path>
  <path  d="M2.286 24h27.429v3.429h-27.429v-3.429z"></path>
</symbol>
<symbol id="phone" viewBox="0 0 32 32">
<path fill="none" stroke="#fff" style="stroke: var(--color1, #fff)" stroke-linejoin="miter" stroke-linecap="butt" stroke-miterlimit="4" stroke-width="1.1429" d="M31.429 16c0 8.521-6.908 15.429-15.429 15.429s-15.429-6.908-15.429-15.429c0-8.521 6.908-15.429 15.429-15.429s15.429 6.908 15.429 15.429z"></path>
<path fill="#fff" style="fill: var(--color1, #fff)" d="M15.712 9.136c0.013 0 0.025-0 0.037-0 1.818 0 3.522 0.703 4.801 1.982 1.289 1.289 1.994 3.008 1.986 4.839-0.002 0.412 0.331 0.748 0.742 0.75 0.001 0 0.002 0 0.004 0 0.41 0 0.744-0.332 0.746-0.743 0.011-2.232-0.85-4.328-2.423-5.901-1.561-1.561-3.639-2.419-5.856-2.419-0.014 0-0.027 0-0.041 0-0.412 0.002-0.744 0.338-0.742 0.75 0.002 0.411 0.336 0.743 0.746 0.743z"></path>
<path fill="#fff" style="fill: var(--color1, #fff)" d="M24.813 22.248c-0.027-0.739-0.334-1.428-0.867-1.942-1.042-1.005-1.915-1.585-2.747-1.825-1.147-0.332-2.209-0.030-3.158 0.896-0.001 0.001-0.003 0.003-0.004 0.004l-1.010 1.002c-0.627-0.352-1.846-1.128-3.18-2.461l-0.098-0.098c-1.325-1.325-2.105-2.551-2.46-3.18l1.001-1.009c0.002-0.001 0.003-0.003 0.004-0.004 0.926-0.948 1.227-2.011 0.896-3.158-0.241-0.832-0.821-1.705-1.825-2.747-0.513-0.532-1.203-0.84-1.941-0.867s-1.449 0.231-1.999 0.724l-0.021 0.019c-0.010 0.009-0.020 0.018-0.029 0.028-1.095 1.095-1.669 2.629-1.66 4.434 0.015 3.067 1.701 6.575 4.51 9.383 0.002 0.002 0.005 0.005 0.007 0.007 0.528 0.527 1.127 1.049 1.782 1.551 0.327 0.251 0.795 0.189 1.046-0.138s0.189-0.795-0.138-1.046c-0.606-0.464-1.158-0.945-1.642-1.429-0.002-0.002-0.005-0.005-0.007-0.007-2.533-2.535-4.052-5.648-4.066-8.329-0.007-1.391 0.411-2.551 1.21-3.358l0.006-0.005c0.542-0.487 1.363-0.457 1.869 0.067 1.932 2.003 1.792 2.949 0.938 3.824l-1.383 1.393c-0.217 0.219-0.277 0.548-0.152 0.829 0.035 0.079 0.884 1.956 3 4.071l0.098 0.098c2.115 2.115 3.992 2.965 4.071 3 0.281 0.125 0.611 0.065 0.829-0.152l1.393-1.383c0.875-0.854 1.821-0.994 3.825 0.938 0.525 0.506 0.554 1.327 0.067 1.869l-0.005 0.006c-0.8 0.792-1.948 1.21-3.324 1.21-0.011 0-0.023 0-0.034-0-1.099-0.006-2.373-0.307-3.682-0.872-0.378-0.163-0.818 0.011-0.981 0.39s0.011 0.817 0.39 0.981c1.513 0.653 2.948 0.987 4.265 0.994 0.014 0 0.028 0 0.042 0 1.788 0 3.306-0.574 4.392-1.66 0.009-0.009 0.019-0.019 0.028-0.029l0.019-0.021c0.494-0.55 0.751-1.26 0.724-1.999z"></path>
<path fill="#fff" style="fill: var(--color1, #fff)" d="M19.497 12.175c-0.8-0.8-1.568-1.013-1.938-1.115-0.397-0.11-0.808 0.123-0.918 0.52s0.123 0.808 0.52 0.918c0.302 0.083 0.758 0.21 1.28 0.732 0.503 0.503 0.636 0.956 0.725 1.257l0.011 0.036c0.096 0.324 0.393 0.535 0.715 0.535 0.070 0 0.142-0.010 0.212-0.031 0.395-0.117 0.621-0.532 0.504-0.927l-0.010-0.034c-0.115-0.391-0.329-1.119-1.101-1.89z"></path>
</symbol>
<symbol id="telegram" viewBox="0 0 32 32">
<path fill="none" stroke="#fff" style="stroke: var(--color1, #fff)" stroke-linejoin="miter" stroke-linecap="butt" stroke-miterlimit="4" stroke-width="1.1429" d="M31.429 16c0 8.521-6.908 15.429-15.429 15.429s-15.429-6.908-15.429-15.429c0-8.521 6.908-15.429 15.429-15.429s15.429 6.908 15.429 15.429z"></path>
<path fill="#fff" style="fill: var(--color1, #fff)" d="M7.667 14.333l15.427-6.256c0.716-0.272 1.341 0.184 1.109 1.322l0.001-0.001-2.627 13.015c-0.195 0.923-0.716 1.147-1.445 0.712l-4-3.101-1.929 1.955c-0.213 0.224-0.393 0.414-0.807 0.414l0.284-4.282 7.413-7.044c0.323-0.299-0.072-0.467-0.497-0.17l-9.161 6.067-3.949-1.296c-0.857-0.286-0.876-0.902 0.181-1.336z"></path>
</symbol>
</defs>
</svg>
