<svg width="170" height="104" viewBox="0 0 170 104" fill="none" xmlns="http://www.w3.org/2000/svg">
<path fill-rule="evenodd" clip-rule="evenodd" d="M81.3879 91.2724V103.771H83.8794V95.5541L89.2732 103.771H91.9668V91.2724H89.4753V99.6483L83.9963 91.2724H81.3879Z" fill="#565F64"/>
<path fill-rule="evenodd" clip-rule="evenodd" d="M74.1256 97.5393C74.1256 95.5002 73.5367 93.9081 72.3588 92.763C71.181 91.6179 69.6102 91.0459 67.6464 91.047C66.6658 91.0302 65.691 91.1991 64.7741 91.5449C64.1314 91.8045 63.5468 92.188 63.0541 92.6734C62.5397 93.1659 62.1199 93.7474 61.815 94.3894C61.4087 95.2568 61.205 96.3272 61.2039 97.6007C61.2039 99.5922 61.7883 101.157 62.9573 102.296C64.1262 103.434 65.7015 104.002 67.6831 104C69.638 104 71.2005 103.429 72.3705 102.287C73.5406 101.146 74.125 99.564 74.1239 97.5426L74.1256 97.5393ZM70.3483 94.2699C71.0162 94.9736 71.3502 96.0429 71.3502 97.4779C71.3502 98.9295 71.0062 100.019 70.3182 100.746C69.9698 101.091 69.5561 101.366 69.1009 101.552C68.6457 101.739 68.158 101.835 67.6655 101.834C67.173 101.833 66.6856 101.736 66.231 101.548C65.7764 101.36 65.3636 101.084 65.0162 100.737C64.3193 100.004 63.9703 98.9295 63.9692 97.5144C63.9692 96.0761 64.3088 94.9985 64.9879 94.2815C65.667 93.5646 66.5615 93.2078 67.6714 93.2111C68.7847 93.2111 69.6753 93.564 70.3433 94.2699H70.3483Z" fill="#E7A24F"/>
<path fill-rule="evenodd" clip-rule="evenodd" d="M56.428 103.771V93.3851H60.3522V91.2724H49.7917V93.3851H53.7327V103.771H56.428Z" fill="#E7A24F"/>
<path fill-rule="evenodd" clip-rule="evenodd" d="M47.8244 102.147C48.2203 101.558 48.4402 100.869 48.4589 100.161C48.4775 99.4527 48.294 98.7536 47.9296 98.1445C47.5642 97.5968 47.0564 97.1575 46.4601 96.8733C45.8372 96.5646 44.8737 96.2626 43.5695 95.9738C42.2653 95.685 41.4437 95.4029 41.1063 95.1324C40.984 95.0462 40.884 94.9323 40.8146 94.8002C40.7452 94.668 40.7084 94.5214 40.7072 94.3723C40.7048 94.2171 40.7425 94.0638 40.8168 93.9272C40.891 93.7907 40.9994 93.6753 41.1314 93.5923C41.5633 93.2958 42.1673 93.1476 42.9432 93.1476C43.6936 93.1476 44.2563 93.2892 44.6315 93.5724C45.0067 93.8556 45.2516 94.3192 45.3663 94.9631L48.0615 94.8752C48.0181 93.7146 47.5761 92.7874 46.7356 92.0937C45.8951 91.4 44.6438 91.0504 42.9816 91.0449C42.0888 91.0239 41.2003 91.1743 40.3649 91.488C39.6972 91.7367 39.1197 92.1782 38.7067 92.7559C38.3384 93.2795 38.1402 93.9027 38.1389 94.5416C38.1389 95.5373 38.5458 96.3782 39.3596 97.0642C39.9396 97.5554 40.9466 97.9692 42.3805 98.3055C43.496 98.5677 44.209 98.747 44.5213 98.8532C44.8832 98.9483 45.2148 99.1333 45.4848 99.3909C45.6685 99.6001 45.7668 99.87 45.7604 100.148C45.7604 100.607 45.5416 101.008 45.1041 101.353C44.6666 101.697 44.0148 101.868 43.1486 101.867C42.3337 101.867 41.6864 101.674 41.2065 101.288C40.7256 100.901 40.41 100.292 40.2513 99.4755L37.6379 99.7211C37.8149 101.114 38.3532 102.175 39.2527 102.904C40.1523 103.633 41.4442 103.998 43.1286 103.998C44.2842 103.998 45.2499 103.846 46.0259 103.541C46.7556 103.273 47.3834 102.786 47.8227 102.147H47.8244Z" fill="#E7A24F"/>
<path fill-rule="evenodd" clip-rule="evenodd" d="M28.6337 101.658V98.2725H35.29V96.1599H28.6337V93.3851H35.7909V91.2724H25.9385V103.771H36.0514V101.658H28.6337Z" fill="#E7A24F"/>
<path fill-rule="evenodd" clip-rule="evenodd" d="M23.0899 103.771V91.2724H20.6001V99.6483L15.1211 91.2724H12.5127V103.771H15.0042V95.5541L20.398 103.771H23.0899Z" fill="#E7A24F"/>
<path fill-rule="evenodd" clip-rule="evenodd" d="M9.94764 96.0402V94.1549H8.71191L9.42997 90.8357H7.30752L6.6095 94.1549H4.65737L5.3771 90.8357H3.32812L2.60672 94.1549H0V96.0402H2.1976L1.65154 98.5544H0V100.44H1.24241L0.52101 103.759H2.56999L3.29139 100.44H5.29528L4.59893 103.759H6.64457L7.36095 100.44H9.95431V98.5544H7.7634L8.30612 96.0402H9.94764ZM4.24657 96.0402H6.21373L5.6877 98.5544H3.70052L4.2399 96.0402H4.24657Z" fill="#E7A24F"/>
<path fill-rule="evenodd" clip-rule="evenodd" d="M76.1294 91.2724V103.771H78.8246V91.2724H76.1294Z" fill="#E7A24F"/>
<path fill-rule="evenodd" clip-rule="evenodd" d="M98.6247 91.2724L93.448 103.771H96.2985L97.404 100.926H102.748L103.897 103.771H106.801L101.469 91.2724H98.6247ZM98.2306 98.8135L100.027 94.1883L101.878 98.8135H98.2306Z" fill="#565F64"/>
<path fill-rule="evenodd" clip-rule="evenodd" d="M116.985 91.2724L114.628 99.796L112.241 91.2724H108.203V103.771H110.695L110.703 93.9311L113.317 103.771H115.907L118.53 93.9311L118.54 103.771H121.032V91.2724H116.985Z" fill="#43A2D9"/>
<path fill-rule="evenodd" clip-rule="evenodd" d="M123.727 91.2724V103.771H133.841V101.658H126.424V98.2725H133.078V96.1599H126.424V93.3851H133.581V91.2724H123.727Z" fill="#43A2D9"/>
<path fill-rule="evenodd" clip-rule="evenodd" d="M137.144 97.0644C137.724 97.5556 138.731 97.9694 140.165 98.3057C141.281 98.5679 141.994 98.7472 142.306 98.8534C142.668 98.9485 142.999 99.1335 143.269 99.3911C143.453 99.6003 143.551 99.8702 143.545 100.148C143.545 100.607 143.326 101.009 142.889 101.353C142.451 101.697 141.802 101.868 140.94 101.867C140.125 101.867 139.478 101.674 138.998 101.288C138.517 100.901 138.201 100.292 138.043 99.4757L135.421 99.7197C135.598 101.113 136.136 102.174 137.036 102.903C137.935 103.632 139.227 103.996 140.912 103.996C142.067 103.996 143.033 103.844 143.809 103.54C144.539 103.271 145.166 102.784 145.606 102.146C146.002 101.557 146.222 100.868 146.24 100.16C146.259 99.4513 146.075 98.7521 145.711 98.1431C145.345 97.5953 144.838 97.156 144.241 96.8718C143.618 96.5632 142.655 96.2611 141.351 95.9724C140.047 95.6836 139.225 95.4015 138.888 95.1309C138.765 95.0447 138.665 94.9309 138.596 94.7987C138.527 94.6666 138.49 94.5199 138.489 94.3709C138.486 94.2156 138.524 94.0624 138.598 93.9258C138.672 93.7892 138.781 93.6739 138.913 93.5909C139.349 93.2888 139.955 93.1378 140.731 93.1378C141.482 93.1378 142.044 93.2794 142.419 93.5626C142.795 93.8459 143.04 94.3095 143.154 94.9534L145.849 94.8654C145.806 93.7048 145.364 92.7777 144.524 92.084C143.683 91.3903 142.43 91.0429 140.765 91.0417C139.874 91.0192 138.987 91.1674 138.153 91.4782C137.485 91.7269 136.908 92.1685 136.495 92.7461C136.123 93.2711 135.923 93.8968 135.922 94.5385C135.922 95.5342 136.329 96.3751 137.143 97.061L137.144 97.0644Z" fill="#43A2D9"/>
<path fill-rule="evenodd" clip-rule="evenodd" d="M151.522 93.3851V103.771H154.218V93.3851H158.14V91.2724H147.58V93.3851H151.522Z" fill="#43A2D9"/>
<path fill-rule="evenodd" clip-rule="evenodd" d="M159.885 91.2724V103.771H170V101.658H162.581V98.2725H169.237V96.1599H162.581V93.3851H169.74V91.2724H159.885Z" fill="#43A2D9"/>
<path fill-rule="evenodd" clip-rule="evenodd" d="M104.647 30.8884C104.473 30.0608 104.549 29.2005 104.866 28.4159C105.183 27.6313 105.727 26.9576 106.429 26.4796C107.131 26.0016 107.959 25.7407 108.81 25.7298C109.661 25.7189 110.496 25.9584 111.209 26.4182C111.923 26.878 112.485 27.5376 112.822 28.3137C113.159 29.0899 113.258 29.9479 113.106 30.7798C112.954 31.6116 112.557 32.3801 111.966 32.9883C111.375 33.5965 110.616 34.0173 109.785 34.1976C108.662 34.4358 107.49 34.221 106.526 33.6004C105.563 32.9799 104.887 32.0043 104.647 30.8884ZM98.002 48.7753L114.38 40.8094C115.434 40.2966 118.682 37.7176 119.774 34.2507C120.866 30.7839 121.17 24.5339 115.915 20.8081C110.66 17.0824 103.746 18.8299 100.984 21.6778C98.2224 24.5256 96.3321 28.3161 96.9767 35.9053C97.6213 43.4946 98.0003 48.7737 98.0003 48.7737L98.002 48.7753Z" fill="#E7A24F"/>
<path fill-rule="evenodd" clip-rule="evenodd" d="M108.626 12.0788C108.567 12.7288 108.703 13.3815 109.016 13.9554C109.328 14.5292 109.804 14.9988 110.384 15.3052C110.964 15.6117 111.621 15.7415 112.275 15.6785C112.929 15.6155 113.549 15.3623 114.059 14.9508C114.568 14.5393 114.944 13.9875 115.14 13.3647C115.336 12.7418 115.343 12.0753 115.16 11.4486C114.976 10.822 114.611 10.2629 114.11 9.84131C113.609 9.41972 112.994 9.15433 112.341 9.07831C111.448 8.98688 110.555 9.25157 109.859 9.81421C109.162 10.3769 108.719 11.1914 108.626 12.0788Z" fill="#E7A24F"/>
<path fill-rule="evenodd" clip-rule="evenodd" d="M116.79 15.2119C116.507 15.5945 116.344 16.0517 116.321 16.5261C116.298 17.0005 116.417 17.471 116.663 17.8785C116.908 18.286 117.269 18.6124 117.7 18.8168C118.132 19.0212 118.614 19.0945 119.087 19.0274C119.56 18.9604 120.003 18.7559 120.36 18.4398C120.716 18.1237 120.971 17.71 121.092 17.2505C121.213 16.7911 121.195 16.3064 121.04 15.8572C120.884 15.408 120.599 15.0144 120.22 14.7256C119.962 14.5337 119.67 14.3941 119.358 14.3146C119.046 14.2352 118.722 14.2176 118.403 14.2627C118.085 14.3079 117.779 14.4149 117.502 14.5778C117.225 14.7406 116.983 14.9561 116.79 15.2119Z" fill="#E7A24F"/>
<path fill-rule="evenodd" clip-rule="evenodd" d="M121.574 20.2751C121.311 20.5195 121.126 20.8353 121.042 21.1833C120.959 21.5314 120.979 21.8962 121.103 22.2325C121.226 22.5688 121.445 22.8618 121.735 23.0749C122.024 23.2881 122.37 23.4121 122.729 23.4315C123.089 23.4508 123.446 23.3648 123.757 23.184C124.068 23.0032 124.318 22.7356 124.477 22.4145C124.636 22.0934 124.697 21.7329 124.651 21.3779C124.606 21.0229 124.456 20.6891 124.221 20.4178C123.889 20.0503 123.424 19.8288 122.927 19.8021C122.431 19.7753 121.944 19.9455 121.574 20.2751Z" fill="#E7A24F"/>
<path fill-rule="evenodd" clip-rule="evenodd" d="M124.358 25.2141C124.042 25.1903 123.726 25.2602 123.45 25.4149C123.174 25.5696 122.951 25.8021 122.808 26.0831C122.665 26.3641 122.609 26.6808 122.647 26.9933C122.686 27.3058 122.816 27.6001 123.023 27.8388C123.229 28.0775 123.503 28.2499 123.808 28.3343C124.113 28.4187 124.436 28.4113 124.737 28.313C125.038 28.2146 125.303 28.0298 125.498 27.7819C125.694 27.5339 125.81 27.234 125.834 26.9201C125.866 26.4994 125.728 26.0833 125.451 25.7634C125.175 25.4435 124.781 25.2459 124.358 25.2141Z" fill="#E7A24F"/>
<path fill-rule="evenodd" clip-rule="evenodd" d="M123.97 30.3571C123.797 30.2395 123.591 30.1765 123.381 30.1763C123.17 30.1761 122.965 30.2387 122.791 30.3559C122.617 30.4731 122.482 30.6396 122.404 30.8338C122.326 31.028 122.309 31.241 122.354 31.4451C122.399 31.6493 122.505 31.8352 122.658 31.9788C122.811 32.1224 123.004 32.2171 123.211 32.2506C123.419 32.2841 123.632 32.2549 123.823 32.1667C124.013 32.0786 124.173 31.9355 124.281 31.7561C124.426 31.5296 124.475 31.2551 124.417 30.9928C124.359 30.7305 124.198 30.5019 123.97 30.3571Z" fill="#E7A24F"/>
<path fill-rule="evenodd" clip-rule="evenodd" d="M73.7931 27.8148C75.0071 20.2986 73.4073 16.3754 70.8674 13.3301C68.3275 10.2847 61.5643 8.03435 56.0436 11.3535C50.5229 14.6727 50.3576 20.9276 51.1859 24.4642C52.0141 28.0007 55.0584 30.8187 56.077 31.4078L71.8059 40.5787C71.8059 40.5787 72.579 35.3394 73.7931 27.8215V27.8148ZM66.524 22.2403C66.2736 23.0484 65.7883 23.7648 65.129 24.2992C64.4698 24.8336 63.6661 25.1622 62.8193 25.2436C61.9725 25.3249 61.1204 25.1554 60.3704 24.7563C59.6203 24.3572 59.0059 23.7465 58.6045 23.001C58.2031 22.2555 58.0327 21.4086 58.1148 20.5671C58.1968 19.7255 58.5276 18.9269 59.0655 18.2719C59.6034 17.6168 60.3243 17.1346 61.1375 16.886C61.9507 16.6374 62.8197 16.6336 63.635 16.8749C64.734 17.2058 65.6557 17.9569 66.1975 18.9631C66.7393 19.9693 66.8567 21.1481 66.524 22.2403Z" fill="#E7A24F"/>
<path fill-rule="evenodd" clip-rule="evenodd" d="M60.7644 6.72315C61.6609 6.67638 62.5021 6.27778 63.103 5.61493C63.7039 4.95208 64.0153 4.07924 63.969 3.18825C63.9333 2.30795 63.5472 1.47779 62.8957 0.880379C62.5731 0.584572 62.195 0.354813 61.783 0.204218C61.3711 0.0536238 60.9333 -0.0148564 60.4947 0.00268766C59.6089 0.0381195 58.7736 0.421796 58.1725 1.06931C57.5714 1.71683 57.2537 2.57514 57.2893 3.45544C57.3151 4.34641 57.6955 5.19083 58.3469 5.80344C58.9984 6.41605 59.8678 6.74681 60.7644 6.72315Z" fill="#E7A24F"/>
<path fill-rule="evenodd" clip-rule="evenodd" d="M54.9083 9.08421C55.3246 8.82509 55.6537 8.44867 55.8539 8.00292C56.0541 7.55718 56.1161 7.0623 56.0322 6.58135C55.9483 6.10041 55.7222 5.6552 55.3827 5.30245C55.0432 4.9497 54.6057 4.7054 54.126 4.60068C53.6463 4.49597 53.1461 4.53558 52.6891 4.71447C52.2321 4.89336 51.8391 5.20342 51.5601 5.60514C51.2811 6.00687 51.1287 6.48205 51.1225 6.97013C51.1163 7.45821 51.2564 7.93708 51.5251 8.3457C51.8753 8.88942 52.4284 9.27265 53.0628 9.41114C53.6973 9.54964 54.3611 9.43204 54.9083 9.08421Z" fill="#E7A24F"/>
<path fill-rule="evenodd" clip-rule="evenodd" d="M50.4947 13.0295C50.7751 12.7719 50.9715 12.4369 51.0588 12.0675C51.146 11.6981 51.1201 11.3111 50.9843 10.9565C50.8485 10.6018 50.6091 10.2957 50.2968 10.0773C49.9845 9.859 49.6136 9.7385 49.2319 9.73133C48.8501 9.72416 48.4749 9.83064 48.1546 10.0371C47.8342 10.2435 47.5833 10.5405 47.4341 10.8898C47.2849 11.2391 47.2443 11.6248 47.3174 11.9972C47.3906 12.3696 47.5741 12.7118 47.8445 12.9797C48.1895 13.3353 48.6623 13.5403 49.1592 13.5496C49.6562 13.559 50.1365 13.3719 50.4947 13.0295Z" fill="#E7A24F"/>
<path fill-rule="evenodd" clip-rule="evenodd" d="M48.8967 16.7107C48.8967 16.3959 48.8028 16.0882 48.6268 15.8265C48.4509 15.5648 48.2008 15.3608 47.9081 15.2403C47.6155 15.1199 47.2935 15.0883 46.9829 15.1498C46.6722 15.2112 46.3869 15.3627 46.1629 15.5853C45.9389 15.8079 45.7864 16.0915 45.7246 16.4002C45.6628 16.7089 45.6945 17.0289 45.8158 17.3198C45.937 17.6106 46.1422 17.8591 46.4056 18.034C46.6689 18.2089 46.9786 18.3022 47.2953 18.3022C47.5056 18.3022 47.7138 18.2611 47.9081 18.1811C48.1024 18.1011 48.279 17.9839 48.4277 17.8361C48.5764 17.6883 48.6943 17.5129 48.7748 17.3198C48.8553 17.1267 48.8967 16.9197 48.8967 16.7107Z" fill="#E7A24F"/>
<path fill-rule="evenodd" clip-rule="evenodd" d="M48.6461 20.77C48.5496 20.6041 48.4064 20.4699 48.2341 20.3839C48.0619 20.2979 47.868 20.2638 47.6765 20.2859C47.485 20.3079 47.3042 20.3851 47.1563 20.508C47.0084 20.6309 46.8998 20.7941 46.8441 20.9775C46.7883 21.1609 46.7877 21.3565 46.8423 21.5403C46.8969 21.724 47.0044 21.8878 47.1516 22.0116C47.2987 22.1354 47.4791 22.2138 47.6705 22.237C47.8618 22.2603 48.0558 22.2274 48.2287 22.1424C48.4661 22.0148 48.643 21.799 48.7206 21.542C48.7982 21.2851 48.7703 21.0081 48.6428 20.7716L48.6461 20.77Z" fill="#E7A24F"/>
<path fill-rule="evenodd" clip-rule="evenodd" d="M66.3121 3.98191C77.7426 2.27088 82.2698 6.47127 82.2698 6.47127C88.7022 12.0408 87.7905 19.5288 87.7905 19.5288C84.6711 20.5959 77.5222 22.8214 77.5222 22.8214C77.5773 23.1533 77.5773 24.0827 77.5773 24.0827L87.7354 20.8183C87.4866 28.61 84.085 37.4141 84.085 37.4141C83.8428 37.3311 82.9878 37.3245 82.9878 37.3245C80.4479 37.3112 79.9102 39.4819 79.8968 40.3565C79.8966 40.9097 80.0144 41.4567 80.2425 41.9613C75.191 45.6771 68.3461 47.969 66.1101 48.8751C63.8741 49.7813 63.156 51.0691 63.156 52.3602C63.156 53.6514 64.7274 58.3032 76.6171 63.2139C88.5069 68.1246 95.4286 68.7137 95.4286 69.1884C95.4286 69.663 96.2636 71.8437 98.6165 71.8437C100.969 71.8437 101.736 70.0613 101.736 68.7718C101.736 67.4823 100.949 65.6435 98.6298 65.6302C96.3103 65.617 95.5105 67.7296 95.5105 67.7296C92.6399 67.2915 90.3755 67.0658 79.0585 62.8471C67.7416 58.6285 64.4569 53.7194 64.4001 52.2258C64.3433 50.7322 67.0218 49.8941 67.0218 49.8941C74.8069 47.1508 80.9906 42.816 80.9906 42.816C80.9906 42.816 81.3246 43.4467 82.9945 43.4467C84.6644 43.4467 85.825 41.7489 85.825 41.7489L85.9736 41.797C88.5954 42.675 95.6908 44.7328 95.6908 44.7328L95.6641 43.4715C91.3624 42.4293 86.1356 40.6735 86.1356 40.6735C86.3026 39.1367 85.0318 37.9435 85.0318 37.9435C88.7857 28.8905 88.896 20.3868 88.896 20.3868C96.1834 17.8078 104.63 14.7907 104.63 14.7907L104.129 13.5842C98.1656 16.0537 89.0295 18.9065 89.0295 18.9065C88.9744 15.3135 88.2848 10.1821 83.0947 5.51867C77.9046 0.855262 66.3405 2.61109 66.3405 2.61109C66.3405 2.61109 66.3121 3.81761 66.3121 3.98191ZM81.0557 40.3466C81.0613 39.9681 81.1794 39.5996 81.3951 39.2876C81.6107 38.9756 81.9144 38.7339 82.2679 38.5928C82.6214 38.4518 83.009 38.4178 83.3819 38.495C83.7548 38.5723 84.0964 38.7574 84.3637 39.027C84.6311 39.2966 84.8123 39.6388 84.8846 40.0104C84.9569 40.3821 84.917 40.7667 84.77 41.1159C84.6229 41.4652 84.3753 41.7634 84.0582 41.9732C83.7411 42.1829 83.3687 42.2949 82.9878 42.2949C82.7322 42.2932 82.4794 42.2414 82.244 42.1425C82.0085 42.0436 81.7949 41.8996 81.6155 41.7187C81.4361 41.5377 81.2943 41.3234 81.1982 41.088C81.1022 40.8525 81.0538 40.6006 81.0557 40.3466ZM96.5976 68.7535C96.5836 68.3547 96.6898 67.9608 96.9026 67.6223C97.1154 67.2839 97.4251 67.0163 97.792 66.854C98.1588 66.6916 98.5661 66.6419 98.9616 66.7111C99.3571 66.7803 99.7228 66.9654 100.012 67.2426C100.301 67.5197 100.5 67.8764 100.583 68.2667C100.667 68.6571 100.631 69.0633 100.481 69.4334C100.331 69.8035 100.073 70.1206 99.7399 70.3439C99.4071 70.5673 99.0147 70.6867 98.6131 70.687C98.088 70.6958 97.5807 70.4972 97.2028 70.1347C96.8249 69.7722 96.6072 69.2754 96.5976 68.7535Z" fill="#565F64"/>
<path fill-rule="evenodd" clip-rule="evenodd" d="M122.46 47.9321C116.718 48.2059 106.262 46.0252 106.262 46.0252L104.688 46.7936C109.793 48.425 120.878 49.283 121.665 49.1386C131.272 48.5345 135.108 46.7521 135.328 40.7162C135.548 34.6804 128.869 26.3692 128.869 26.3692L127.82 27.2471C130.083 29.9356 133.726 35.3674 134.114 40.9635C134.501 46.5596 128.207 47.6566 122.465 47.9337L122.46 47.9321Z" fill="#565F64"/>
<path fill-rule="evenodd" clip-rule="evenodd" d="M36.6662 24.6114C36.6929 22.3345 39.2112 16.3816 41.7995 14.4067L40.861 13.5022C40.861 13.5022 35.1199 19.9198 35.5624 25.1325C36.0049 30.3453 41.7411 31.273 51.7104 30.4548L50.8554 29.3031C50.8554 29.3031 45.0107 30.0714 41.6359 29.3313C38.261 28.5911 36.6378 26.8884 36.6662 24.6114Z" fill="#565F64"/>
</svg>
